<?xml version="1.0" encoding="UTF-8" standalone="no"?>
<svg
   version="1.1"
   width="862.88123"
   height="789.55652"
   id="svg19"
   sodipodi:docname="jl_st_logo.svg"
   inkscape:version="1.4.3 (0d15f75, 2025-12-25)"
   viewBox="0 0 937.91438 858.21361"
   xmlns:inkscape="http://www.inkscape.org/namespaces/inkscape"
   xmlns:sodipodi="http://sodipodi.sourceforge.net/DTD/sodipodi-0.dtd"
   xmlns="http://www.w3.org/2000/svg"
   xmlns:svg="http://www.w3.org/2000/svg">
  <defs
     id="defs19" />
  <sodipodi:namedview
     id="namedview19"
     pagecolor="#ffffff"
     bordercolor="#000000"
     borderopacity="0.25"
     inkscape:showpageshadow="2"
     inkscape:pageopacity="0.0"
     inkscape:pagecheckerboard="0"
     inkscape:deskcolor="#d1d1d1"
     inkscape:zoom="0.8300218"
     inkscape:cx="416.85652"
     inkscape:cy="675.88586"
     inkscape:window-width="2560"
     inkscape:window-height="1494"
     inkscape:window-x="-11"
     inkscape:window-y="-11"
     inkscape:window-maximized="1"
     inkscape:current-layer="svg19" />
  <g
     id="g2"
     transform="matrix(0.8653009,0,0,0.87721312,55.857928,35.296061)">
    <path
       id="path2"
       style="fill:#da8230;fill-opacity:1;stroke-width:1.12285"
       d="m 436.18575,33.093909 c -1.96776,0.02053 -1.96672,0.02137 -3.8955,0.04148 -4.35053,-0.0073 -8.69971,-0.0077 -13.05016,0.01778 -3.10984,0.01938 -6.21974,0.03047 -9.32965,0.03557 -7.31682,0.0042 -14.63355,0.01794 -21.95027,0.05335 -8.44085,0.04231 -16.88203,0.06881 -25.32302,0.07903 -7.31869,0.0087 -14.63615,0.02388 -21.95481,0.04347 -1.58888,0.0043 -3.13291,0.0096 -4.67505,0.01383 -4.52007,0.01044 -9.03924,0.02279 -13.55925,0.04347 -1.40449,0.0072 -2.76867,0.01284 -4.13188,0.01976 -1.97893,0.0043 -1.97847,0.0057 -3.91822,0.0099 -1.21584,0.0076 -2.39497,0.01424 -3.57504,0.02174 -4.8341,0.02108 -8.01222,0.33452 -12.00696,2.922233 l -3.1364,2.270213 c -5.36818,3.876667 -10.66809,7.819897 -15.95701,11.777843 -3.80339,2.850718 -7.60749,5.690226 -11.51149,8.436736 -5.85725,4.021747 -11.58948,8.13358 -17.24112,12.370588 -3.95211,2.963905 -7.90674,5.919681 -11.93423,8.806214 -6.15783,4.344128 -12.24102,8.745616 -18.24794,13.245873 -4.96724,3.721344 -9.96091,7.398311 -15.05246,10.991461 -5.02443,3.54299 -9.93745,7.18205 -14.82745,10.86303 -5.7824,4.35606 -11.69132,8.51581 -17.76385,12.56223 -7.5531,4.91569 -13.24824,9.64015 -16.68656,17.38324 -0.45252,1.0748 -0.45416,1.07444 -0.89774,2.12796 -1.03958,2.36637 -2.07627,4.73393 -3.09548,7.10701 -1.4508,3.38156 -2.9253,6.75508 -4.40233,10.12804 -0.38194,0.87167 -0.7543,1.71658 -1.12501,2.56263 -2.42549,5.55851 -4.89329,11.09525 -7.52964,16.58105 -0.33491,0.69234 -0.65905,1.36311 -0.9841,2.03509 -1.21667,2.52647 -2.43792,5.05212 -3.66368,7.57528 -0.5936,1.19187 -1.17163,2.34828 -1.74774,3.5051 -0.53081,1.0982 -1.0462,2.16257 -1.5614,3.22848 -1.37567,2.77861 -1.3746,2.77927 -2.18637,5.37028 0.33996,3.0282 0.68835,4.73461 3.04776,7.02403 5.60775,3.84146 10.73118,7.95965 15.79791,12.32711 1.44415,1.25371 1.44355,1.25473 2.85912,2.48361 2.04376,1.76959 4.08701,3.54039 6.12962,5.311 3.1831,2.76748 6.36732,5.53265 9.56147,8.29051 2.10236,1.81474 4.20334,3.63164 6.30008,5.45128 1.01947,0.88579 2.00828,1.74638 2.99776,2.60611 0.98738,0.85063 1.94625,1.67577 2.90458,2.50138 l 2.68186,2.34134 c 2.98369,2.58816 5.02581,4.83602 6.72962,8.19767 -1.85775,1.63686 -3.71856,3.2719 -5.58188,4.90397 -1.17236,1.02643 -1.17362,1.02702 -2.32276,2.03311 -0.75573,0.66603 -1.48926,1.3116 -2.22275,1.95804 -0.75572,0.66046 -1.48926,1.30119 -2.22276,1.94223 -4.09373,3.59276 -8.50382,6.83831 -12.94106,10.10235 -7.76111,-6.8132 -15.52728,-13.62104 -23.30709,-20.41809 -3.9665,-3.46408 -7.93398,-6.9265 -11.89106,-10.39872 -3.87525,-3.4037 -7.75266,-6.80681 -11.64104,-10.19917 -1.4789,-1.28881 -2.95909,-2.57847 -4.43641,-3.86865 -2.11989,-1.86753 -4.2377,-3.73321 -6.37054,-5.58958 -0.66633,-0.57879 -1.31465,-1.14137 -1.96139,-1.70316 -2.88483,-2.56204 -5.422274,-4.97346 -9.300104,-6.36213 -2.14223,-0.089 -2.14294,-0.0896 -4.50913,1.45618 -0.8077,0.76476 -1.59107,1.5082 -2.37503,2.25046 -0.86528,0.79951 -1.70564,1.57523 -2.54548,2.35122 -2.70519,2.56855 -5.498235,5.03324 -8.368283,7.46266 -4.875482,3.44377 -9.384651,7.02126 -13.79789,10.90848 -5.598553,4.9631 -11.127559,9.90609 -17.288841,14.34838 -5.709888,3.87906 -5.708677,3.8795 -7.527363,15.00237 l -0.418186,2.69304 c -0.493061,3.05136 -0.983663,6.10326 -1.465926,9.15593 -1.087763,6.83893 -1.088389,6.83948 -2.190935,13.67661 l -0.586371,3.6355 c -1.476715,9.19613 -2.984519,18.388 -4.53869,27.5745 -4.230881,24.94318 -8.539059,49.87819 -12.08878,74.90319 l -0.386368,2.74244 c -1.419493,9.90278 -4.731886,21.30939 -0.954556,30.92548 1.054423,1.79898 2.106041,3.59931 3.138672,5.40781 l 1.215924,2.13388 c 2.489829,4.27464 4.870635,8.59052 7.236451,12.91789 3.559955,6.52013 7.104353,13.04507 10.834217,19.49341 1.10419,1.8939 2.207321,3.78748 3.30004,5.6864 1.074913,1.87397 2.150084,3.74625 3.227311,5.61922 0.71594,1.2017 1.411959,2.36839 2.106842,3.53474 0.977266,1.71156 0.976201,1.71282 1.934115,3.39049 3.937314,12.8292 3.937853,12.82783 2.225027,26.36136 -0.219804,2.41174 -0.433803,4.82495 -0.64319,7.2374 -0.339283,3.91976 -0.682323,7.83887 -1.029557,11.75809 -1.204397,13.36207 -2.477045,26.73006 -2.809125,40.13477 -0.01779,1.03165 -0.03501,2.03354 -0.05228,3.03484 -0.169688,5.09866 -0.51651,8.65949 2.734123,13.03249 l 2.534121,2.16352 c 5.1188,5.61572 10.230758,11.12704 16.107009,16.16218 3.598632,3.05217 7.095731,6.15839 10.497851,9.37723 0.576789,0.54932 1.135644,1.08306 1.695475,1.61621 2.216607,2.10886 4.428583,4.2216 6.625083,6.34633 6.11672,6.02037 12.07213,11.69287 19.268394,16.75097 l 2.29548,-1.80393 c 1.06201,-0.83288 2.09199,-1.63964 3.12278,-2.44802 2.20228,-1.72842 4.41025,-3.45223 6.62279,-5.17072 5.95192,-4.43855 11.67838,-8.99008 17.21157,-13.82281 1.3576,-1.19352 1.35795,-1.19318 2.68867,-2.36307 3.95768,-3.45717 7.91271,-6.91609 11.86378,-10.37897 11.49009,-10.07079 24.14715,-25.10324 39.2891,-31.01638 1.73921,1.49179 3.47682,2.98534 5.21142,4.48116 0.73574,0.63475 1.44957,1.25107 2.16366,1.86715 0.70695,0.60554 1.39343,1.19247 2.07957,1.78021 0.70375,0.60832 1.38744,1.19965 2.07049,1.79009 2.063,1.77516 4.0306,3.59181 5.93188,5.4987 0.66397,0.67591 1.30788,1.33163 1.95231,1.98767 1.15781,1.17763 2.31399,2.35613 3.47049,3.53473 -9.2416,7.99013 -18.47796,15.9835 -27.70716,23.98444 -4.70412,4.07897 -9.40798,8.15875 -14.11834,12.23228 -4.61634,3.99003 -9.23118,7.98173 -13.83879,11.97938 -1.75105,1.52017 -3.50253,3.03894 -5.25461,4.55821 -2.53115,2.18403 -5.06163,4.36818 -7.58419,6.55971 -1.16891,1.01666 -1.16791,1.01683 -2.31367,2.01336 -3.36899,2.89376 -6.64321,5.61072 -9.20011,9.09072 -0.66887,1.81999 -0.66859,1.81886 0.43866,4.1591 0.65675,0.85618 1.29438,1.68818 1.93184,2.51917 l 2.07274,2.79577 c 1.32199,1.76131 2.6088,3.54262 3.84096,5.35249 0.82376,1.25462 0.82441,1.25383 1.63183,2.4836 0.5709,0.8647 1.12546,1.7056 1.67957,2.54485 0.59027,0.89841 1.16347,1.7697 1.73639,2.64167 4.42914,6.73727 8.78833,13.50199 13.05242,20.3193 5.08938,8.1546 10.18487,16.30828 15.36609,24.41911 0.70204,1.09621 1.38227,2.16057 2.06366,3.22453 5.4729,8.67936 10.38983,14.86273 20.2707,20.02293 1.85823,0.95008 3.7102,1.90719 5.55915,2.87086 1.01883,0.53211 2.00889,1.04839 2.99776,1.56485 5.07527,2.63804 10.11481,5.32261 15.13881,8.03366 10.64094,5.74986 21.30479,11.46496 31.97767,17.16985 6.42996,3.43595 12.86235,6.87073 19.27751,10.3276 l 3.48185,1.88098 c 2.19868,1.18698 4.39738,2.37468 6.59553,3.5624 1.9151,1.03888 3.83051,2.07606 5.74779,3.11191 1.96406,1.01076 3.9104,2.04875 5.84326,3.104 12.15715,8.47179 12.15697,8.47049 39.73228,8.16605 2.81469,-0.0332 5.62837,-0.0526 8.44329,-0.0612 5.89241,-0.006 11.7853,-0.0202 17.67748,-0.0672 7.64092,-0.0715 15.28164,-0.13089 22.923,-0.14819 7.41905,-0.0143 14.83585,-0.0395 22.2548,-0.0771 1.4427,-0.008 2.84296,-0.014 4.24323,-0.0217 4.09449,-0.0163 8.18992,-0.0351 12.28425,-0.0711 1.88859,-0.0185 1.88749,-0.0195 3.73868,-0.0376 1.20464,-0.005 2.37402,-0.008 3.54322,-0.0119 1.63483,-0.0207 1.63621,-0.0213 3.23867,-0.0415 2.81252,-0.023 2.81302,-0.0222 5.22961,-0.30033 3.18339,-1.84497 4.51778,-2.86875 6.69781,-5.43152 1.34849,-1.69861 2.73435,-3.37426 4.13868,-5.03833 13.4314,-12.82088 13.77651,-24.92886 13.55471,-41.82803 -0.0533,-3.82244 -0.0532,-7.64302 -0.034,-11.46566 0.0362,-6.71449 0.0366,-13.42899 -0.006,-20.14346 -0.0698,-10.04318 -0.0913,-20.08587 -0.0796,-30.12922 0.022,-16.90905 -0.001,-33.81817 -0.0683,-50.72712 -0.0675,-16.81825 -0.12043,-33.63609 -0.13181,-50.45445 -0.001,-1.07695 -0.001,-2.12195 -0.002,-3.16723 -0.003,-5.31114 -0.004,-10.62186 -0.006,-15.93299 -0.0186,-37.59808 -0.0894,-75.19547 -0.19772,-112.79343 -0.10555,-36.57473 -0.18692,-73.15017 -0.22727,-109.72499 -10e-4,-1.16244 -0.003,-2.28992 -0.004,-3.41817 -0.0113,-10.21064 -0.0208,-20.42243 -0.0318,-30.63306 -0.0708,-67.6858 -0.15941,-135.37099 -0.34091,-203.05664 -0.005,-1.88028 -0.007,-3.76067 -0.0136,-5.64096 -0.002,-0.9499 -0.006,-1.87183 -0.008,-2.7938 -0.0172,-6.3943 -0.0327,-12.78891 -0.0455,-19.18319 -0.015,-7.6881 -0.033,-15.375625 -0.0568,-23.0637 -0.0127,-3.872191 -0.0252,-7.743624 -0.0318,-11.615825 -0.005,-3.565169 -0.0122,-7.131914 -0.025,-10.697071 -0.007,-1.955893 -0.007,-1.955438 -0.016,-3.872601 -2.8e-4,-1.235217 2.9e-4,-2.434639 0,-3.633526 -0.005,-1.123427 -0.0127,-2.213182 -0.0182,-3.303566 -0.0149,-5.60594 -0.54529,-9.476195 -4.9796,-13.729948 -5.55072,-4.209288 -9.74877,-4.677744 -17.02748,-4.722202 z M 285.96578,293.46897 c 3.47168,0.34351 3.47346,0.34342 5.34779,1.4384 2.57645,3.0319 3.22901,6.37876 4.12277,9.99763 0.20934,0.8025 0.41844,1.60344 0.63412,2.43025 0.6868,2.64418 1.35428,5.29309 2.02275,7.94081 0.47575,1.8438 0.95343,3.68702 1.43183,5.53031 0.98271,3.79306 1.95926,7.58723 2.92958,11.38267 1.94618,7.60341 3.94443,15.19645 5.94553,22.78907 0.60323,2.29041 1.20584,4.58103 1.80683,6.8719 3.39704,12.94008 6.82628,25.87577 10.5433,38.74971 0.93939,0.15688 1.87765,0.31454 2.8455,0.47617 12.87948,2.2648 25.36484,5.42425 37.94817,8.68569 2.19119,0.56395 4.38353,1.1264 6.57508,1.68932 3.25961,0.8375 6.51874,1.67491 9.77739,2.51522 6.2249,1.60504 12.45432,3.1929 18.6934,4.75579 1.35543,0.33976 2.71037,0.67936 4.10687,1.0294 2.4372,0.60955 4.87501,1.21675 7.31373,1.8217 1.04649,0.26283 2.09455,0.52546 3.17275,0.79625 0.89029,0.22158 1.78049,0.44348 2.69777,0.67178 2.00632,0.59221 2.00486,0.59102 3.20912,1.63795 0.2504,2.724 0.39151,5.38688 0.45228,8.11469 0.045,0.75034 0.09,1.50105 0.13636,2.27415 0.0755,3.96687 -0.22648,5.97654 -3.13639,9.08481 -3.86094,2.79287 -6.66956,3.76841 -11.48424,4.95733 -0.81761,0.20726 -1.63491,0.41475 -2.4773,0.62831 -1.86576,0.47021 -3.73393,0.93175 -5.6046,1.38702 -3.49768,0.85232 -6.98834,1.72949 -10.4774,2.60808 -9.65552,2.42576 -19.31868,4.82395 -28.98671,7.21172 -4.16413,1.0294 -8.3269,2.06389 -12.48878,3.10006 -1.89875,0.46631 -1.89932,0.46675 -3.83641,0.94247 -11.43383,2.34875 -11.43342,2.34801 -20.62752,8.07318 -1.73185,3.54983 -2.79915,7.10515 -3.72277,10.86107 -0.20284,0.78899 -0.4069,1.57783 -0.61591,2.39074 -0.66973,2.61724 -1.32359,5.23752 -1.9773,7.85782 -0.46829,1.84267 -0.93704,3.68397 -1.40684,5.52635 -2.66382,10.4906 -5.23915,20.99805 -7.79781,31.50836 -0.26919,1.10475 -0.5386,2.20881 -0.81592,3.34703 -1.31517,5.40305 -2.62407,10.80666 -3.91823,16.21354 -0.48124,1.99385 -0.96185,3.98895 -1.4432,5.98277 -0.21037,0.88945 -0.41962,1.77862 -0.63637,2.69502 -4.78431,19.73286 -4.78595,19.73308 -10.40013,24.36972 -4.47754,0.51752 -8.75757,0.36325 -13.2456,0 -2.20454,-4.34306 -3.42775,-8.74395 -4.55006,-13.36836 l -0.6091,-2.452 c -0.43787,-1.76109 -0.8731,-3.52344 -1.30684,-5.28531 -1.18329,-4.8038 -2.38397,-9.6035 -3.5864,-14.4037 -0.25396,-1.0144 -0.50881,-2.02923 -0.77047,-3.07437 -3.58888,-14.27889 -7.39674,-28.5147 -11.19331,-42.75273 -2.89827,-10.89625 -5.67926,-21.79239 -8.091,-32.77879 -0.75215,-0.0996 -1.50463,-0.1997 -2.27958,-0.30229 -9.76846,-1.40703 -19.10276,-3.73063 -28.5617,-6.23766 -1.66172,-0.43589 -3.32213,-0.87097 -4.98414,-1.30601 -3.45865,-0.9068 -6.91688,-1.81811 -10.37286,-2.73256 -4.40939,-1.16648 -8.82278,-2.32345 -13.23651,-3.47743 -3.42298,-0.89584 -6.84274,-1.79556 -10.26376,-2.69699 -1.6262,-0.4281 -3.25261,-0.85456 -4.8796,-1.28033 -21.19882,-5.55566 -21.19869,-5.55663 -25.37531,-9.18755 -0.65857,-3.18986 -0.65992,-3.19058 -0.90455,-7.06749 -0.11802,-1.26858 -0.23528,-2.53595 -0.35683,-3.84297 1.7238,-5.12206 4.5012,-5.93286 9.67057,-8.49009 6.34563,-2.68646 12.97081,-4.2763 19.75932,-5.8978 1.52004,-0.37623 3.03849,-0.75243 4.6046,-1.14005 4.01209,-0.99284 8.03086,-1.96745 12.05014,-2.93804 4.04364,-0.97983 8.08207,-1.97604 12.12061,-2.97163 5.96545,-1.46874 11.93332,-2.92813 17.90476,-4.37841 1.34538,-0.3353 2.69117,-0.67011 4.07732,-1.01557 2.92741,-0.69771 5.87512,-1.33424 8.83419,-1.92247 8.63059,-1.53657 8.6287,-1.53639 14.83199,-6.44709 0.58209,-1.96562 0.58422,-1.96548 0.97502,-4.14131 0.57291,-1.82122 1.15015,-3.64007 1.73185,-5.45918 0.60463,-2.11922 1.20122,-4.2417 1.79092,-6.3641 0.32312,-1.14302 0.64665,-2.28596 0.97955,-3.46361 1.04092,-3.69268 2.06892,-7.38713 3.09776,-11.08236 0.71087,-2.53207 1.42296,-5.06301 2.13411,-7.59503 3.91443,-13.99324 7.75204,-27.99154 10.94788,-42.12441 5.17783,-22.45734 5.17703,-22.45705 15.29336,-22.58359 1.9327,-0.0406 1.93283,-0.0417 3.90458,-0.083 z" />
    <g
       id="g1">
      <path
         d="m 636.91503,31.751995 c 1.27155,-0.02865 1.27155,-0.02865 2.56878,-0.05788 2.206,-0.05243 4.41134,-0.126187 6.6165,-0.201999 6.18507,0.676007 10.37525,4.071894 14.74613,7.883478 0.69569,0.599288 1.39138,1.198576 2.10815,1.816024 0.72088,0.62746 1.44176,1.25492 2.18448,1.901395 5.02883,4.315469 10.06465,8.518488 15.48785,12.432293 6.57164,4.744308 12.64935,9.911631 18.78083,15.106872 7.45812,6.318589 15.24548,12.166183 23.26796,17.89187 0.81203,0.662635 1.62406,1.325269 2.4607,2.007979 0,0.690977 0,1.381943 0,2.093861 0.94039,0.350212 0.94039,0.350212 1.89978,0.707496 3.60029,1.826919 6.41274,4.268709 9.39042,6.817306 1.24468,1.04901 2.49011,2.09731 3.73626,3.14488 0.60193,0.5076 1.20387,1.01521 1.82404,1.53819 2.8313,2.36735 5.74726,4.64376 8.66102,6.92722 2.57301,2.03548 5.10353,4.11027 7.63537,6.18751 4.65988,3.80595 9.40285,7.5105 14.18513,11.18907 5.90431,4.54509 11.67953,9.1931 17.37295,13.95258 3.85727,3.22439 7.77175,6.37619 11.73914,9.48883 5.68532,4.49256 11.25909,9.10033 16.86295,13.67553 5.11865,4.17354 10.26172,8.31627 15.46071,12.40775 3.8024,3.02265 7.54891,6.10054 11.28569,9.18927 2.12309,1.68723 4.21315,3.11315 6.52715,4.55986 9.93589,8.98312 13.20528,26.65897 17.5143,38.47468 0.82369,2.24739 1.64771,4.4947 2.47199,6.74191 6.92144,18.89282 13.74307,37.815 20.53661,56.74565 3.72566,10.38124 7.46227,20.75921 11.20556,31.13524 1.16785,3.24167 2.33134,6.48457 3.49422,9.7277 3.80275,10.58204 7.69198,21.12745 11.76318,31.62771 1.14192,2.97653 2.28177,5.95371 3.42105,8.93107 1.06257,2.74776 2.15704,5.48389 3.25311,8.22084 3.61512,9.26714 5.69933,16.81765 3.94812,26.71534 -0.45198,2.64035 -0.81372,5.28551 -1.17164,7.93763 -0.80552,5.91323 -1.66464,11.81919 -2.53352,17.72506 -1.04372,7.10366 -2.07052,14.20928 -3.09039,21.31576 -0.11064,0.77065 -0.22129,1.5413 -0.33529,2.33529 -2.03383,14.19644 -3.95354,28.40466 -5.84357,42.61727 -0.14108,1.0603 -0.28216,2.12059 -0.42752,3.21303 -1.41317,10.62565 -2.8194,21.25204 -4.21552,31.87953 -0.52863,4.01822 -1.06045,8.03609 -1.59284,12.05391 -0.2459,1.86226 -0.49029,3.72467 -0.73297,5.58728 -1.24624,9.56511 -2.58792,19.11472 -4.15964,28.64102 -0.1285,0.82202 -0.25701,1.64403 -0.3894,2.49095 -1.13237,6.62193 -3.59248,11.41887 -8.24449,16.67225 -0.66481,0.81354 -1.32962,1.62707 -2.01458,2.46526 -2.01796,2.45537 -4.08598,4.87005 -6.16359,7.28429 -1.21478,1.45859 -2.42569,2.91984 -3.63223,4.38401 -1.72323,2.08887 -3.44955,4.17487 -5.19277,6.25014 -4.50308,5.36431 -8.73997,10.8659 -12.92568,16.43496 -5.88369,7.80847 -12.0377,15.43664 -18.17668,23.08179 -2.55453,3.18754 -5.09168,6.38612 -7.62179,9.58954 -0.46087,0.58351 -0.92174,1.16702 -1.39658,1.76822 -3.70406,4.69784 -7.37775,9.41486 -11.0516,14.13202 -5.4722,7.02556 -11.01865,13.99998 -16.59521,20.95803 -4.23321,5.28867 -8.41726,10.60648 -12.57117,15.94625 -4.97392,6.38162 -9.95795,12.75651 -14.98124,19.10648 -0.61573,0.78611 -1.23147,1.57223 -1.86587,2.38217 -0.58886,0.74158 -1.17773,1.48317 -1.78444,2.24722 -0.51191,0.64879 -1.02381,1.2976 -1.55122,1.96605 -4.10827,4.61216 -8.48224,8.01297 -14.0859,11.05514 -1.27225,0.69502 -2.54449,1.39004 -3.85529,2.10613 -1.38048,0.7432 -2.76113,1.48612 -4.14195,2.22882 -1.43751,0.78062 -2.8747,1.56173 -4.31157,2.34331 -13.22077,7.17564 -26.53297,14.21238 -39.84961,21.24123 -6.71085,3.54389 -13.38312,7.13921 -20.03832,10.76785 -6.09613,3.31777 -12.21576,6.59994 -18.33521,9.8824 -1.99179,1.06866 -3.98274,2.13859 -5.97367,3.20857 -2.51211,1.34672 -5.0346,2.67779 -7.56835,3.99096 -2.60705,1.37565 -4.92548,2.78478 -7.36128,4.4244 -13.18422,8.2728 -26.85142,7.31826 -42.39385,7.13701 -2.84197,-0.005 -5.68394,-0.007 -8.52591,-0.006 -5.92572,-0.007 -11.85013,-0.0409 -17.77551,-0.0975 -7.59043,-0.0714 -15.17942,-0.0872 -22.77021,-0.0839 -5.85518,-9.6e-4 -11.71005,-0.0241 -17.56513,-0.0544 -2.79961,-0.0133 -5.59924,-0.0217 -8.39889,-0.0247 -3.90482,-0.009 -7.80812,-0.0457 -11.71261,-0.0904 -1.15145,0.002 -2.30289,0.004 -3.48924,0.006 -6.53865,-0.10939 -10.77469,-0.60604 -15.78915,-4.8018 -3.11506,-4.98096 -2.63195,-10.20706 -2.59445,-15.76077 -0.002,-1.069 -0.004,-2.13799 -0.006,-3.23939 -0.004,-3.58637 0.009,-7.17252 0.0216,-10.75887 6.6e-4,-2.56908 2.9e-4,-5.13814 -0.001,-7.70722 -5.3e-4,-5.53328 0.006,-11.0665 0.019,-16.59976 0.0188,-8.00015 0.0249,-16.00026 0.0277,-24.00042 0.005,-12.98002 0.0205,-25.96001 0.0424,-38.94 0.0213,-12.60815 0.0376,-25.21629 0.0475,-37.82444 6e-4,-0.77728 0.001,-1.55458 0.002,-2.35542 0.003,-3.89949 0.006,-7.79896 0.009,-11.69844 0.024,-32.34519 0.0649,-64.69032 0.11654,-97.03547 1.28852,0.99163 2.57594,1.98444 3.86292,2.97772 0.71704,0.55273 1.4341,1.10547 2.17288,1.67495 2.73102,2.14908 5.30426,4.41458 7.85984,6.73269 0.90756,0.81783 1.81511,1.63566 2.75017,2.47827 2.33877,2.22148 4.55919,4.46465 6.7669,6.78869 4.85533,5.05605 10.10347,9.72528 15.37928,14.41982 6.64886,5.91631 13.05641,11.89989 19.10651,18.32128 6.58543,7.00552 6.58543,7.00552 14.0404,13.21749 3.50495,2.61775 6.24544,5.43574 9.18234,8.55538 4.0058,4.10166 8.3527,7.9014 12.67434,11.72889 -1.46194,3.46581 -3.14629,6.64279 -5.13849,9.88041 -7.35661,13.30233 -7.65036,26.80131 -3.47391,40.96113 4.61865,12.43715 13.40383,23.04557 26.10861,29.51034 15.35159,6.77684 31.63835,9.25113 48.2186,4.384 15.77235,-5.04201 27.15334,-14.8638 34.73458,-28.25484 4.44206,-9.44595 5.73342,-19.08093 4.9259,-29.26086 -0.0672,-0.92176 -0.13434,-1.8435 -0.20355,-2.79318 -1.78688,-13.17728 -10.44743,-25.66725 -21.79788,-33.84937 -12.07603,-8.23023 -26.67188,-11.7224 -41.68693,-10.4693 -0.9598,0.24022 -1.91961,0.48044 -2.9085,0.72795 -3.35839,0.77253 -5.26649,1.02935 -8.6712,0.31898 -6.63048,-4.16153 -11.77042,-10.15235 -16.9879,-15.64721 -4.91069,-5.13889 -10.07379,-9.95926 -15.43527,-14.71376 -4.58402,-4.06506 -9.09074,-8.12774 -13.28047,-12.53044 -4.3918,-4.60993 -9.13289,-8.8582 -13.93182,-13.11934 -5.61669,-4.98724 -11.02865,-10.03142 -16.16409,-15.42791 -2.21923,-2.29632 -4.5751,-4.43479 -6.99532,-6.55762 -3.10713,-2.77155 -6.08231,-5.56021 -8.9019,-8.57174 -4.59643,-4.8564 -9.65461,-9.27946 -14.67591,-13.77161 -4.35984,-3.91631 -8.55711,-7.89533 -12.51378,-12.15217 -1.48273,-1.66599 -1.48273,-1.66599 -3.35115,-2.91274 -2.3903,-2.65788 -2.0832,-4.57933 -2.05958,-7.97445 2.6e-4,-1.25739 5.3e-4,-2.51477 7.9e-4,-3.81026 0.018,-1.35781 0.0358,-2.71561 0.0543,-4.11457 0.006,-1.40385 0.0114,-2.80771 0.0149,-4.21157 0.0133,-3.69199 0.0474,-7.3836 0.0858,-11.07542 0.0356,-3.76844 0.0514,-7.53691 0.0689,-11.30543 0.0372,-7.39207 0.0965,-14.78385 0.16962,-22.1757 0.6451,-0.0259 1.29019,-0.0518 1.95483,-0.0785 2.98383,-0.12173 5.96734,-0.24859 8.9509,-0.37551 1.01424,-0.0406 2.02848,-0.0812 3.07345,-0.12307 4.94558,-0.2137 9.80334,-0.52021 14.70913,-1.13267 12.39482,-1.25496 12.39482,-1.25496 17.40561,2.03618 2.12848,1.89093 4.04476,3.86618 5.96046,5.93464 1.50756,1.53902 3.01897,3.07498 4.53378,4.60818 0.78028,0.79823 1.56055,1.59646 2.36446,2.41888 3.99793,3.99125 8.23243,7.75845 12.47515,11.53551 1.68494,1.51041 3.36987,3.02082 5.05481,4.53124 2.57482,2.30159 5.15153,4.60142 7.73063,6.8991 2.54621,2.2707 5.0854,4.54765 7.62377,6.82549 0.78138,0.69236 1.56276,1.38471 2.36781,2.09804 0.70899,0.63747 1.41797,1.27494 2.14846,1.93172 0.93968,0.83787 0.93968,0.83787 1.89836,1.69267 1.33383,1.45068 1.33383,1.45068 1.33383,3.54453 0.76425,0 1.52852,0 2.31594,0 1.65327,1.51929 1.65327,1.51929 3.58247,3.63154 4.52298,4.80891 9.38736,9.22205 14.36607,13.64281 7.8309,6.95332 15.24476,13.9648 21.78431,21.94871 5.55414,6.33368 10.97282,12.06305 19.95237,14.01547 9.23345,0.93588 18.38519,0.68061 27.65616,0.28933 5.44751,-0.17696 10.79542,0.0736 16.22458,0.45446 1.50314,0.0878 3.00629,0.17544 4.55498,0.26582 1.00459,0.0635 2.00917,0.12687 3.0442,0.19221 0.38063,1.51826 0.38063,1.51826 0.76896,3.06719 3.99541,15.14739 11.5317,27.57971 26.15385,36.51986 15.094,7.9946 32.50571,10.42573 49.67511,6.60056 14.30951,-4.23761 26.31863,-13.12859 34.06965,-24.8605 8.2545,-15.35046 9.38278,-30.23862 3.97148,-46.45342 -5.9707,-13.19548 -15.68588,-23.36539 -30.10722,-29.31404 -0.74188,-0.31984 -1.48375,-0.63968 -2.2481,-0.96922 -11.95284,-4.92485 -29.49189,-5.40157 -41.89952,-1.51723 -1.91223,0.76959 -3.79655,1.59875 -5.6451,2.48645 -1.00608,0.48046 -2.01216,0.96089 -3.04872,1.4559 -10.58008,5.17407 -10.58008,5.17407 -17.67431,13.47359 -1.51753,3.29001 -2.74864,4.87329 -5.91029,7.05605 -7.80793,1.6867 -16.22392,0.87696 -24.17262,0.5889 -2.25554,-0.0473 -4.51117,-0.0902 -6.7669,-0.12883 -5.51528,-0.10361 -11.025,-0.26604 -16.53726,-0.46007 -0.76426,-1.38195 -1.52852,-2.7639 -2.31594,-4.18772 -0.76426,0 -1.52852,0 -2.31594,0 -1.38866,-1.28004 -1.38866,-1.28004 -3.11204,-3.20622 -4.99204,-5.33221 -10.47386,-10.18155 -15.98626,-15.06828 -4.06218,-3.62415 -7.91459,-7.30784 -11.5424,-11.29284 -2.40029,-2.47853 -4.9801,-4.75941 -7.57232,-7.07522 -1.41687,-1.27453 -2.83319,-2.54959 -4.2491,-3.82502 -0.78482,-0.70618 -1.56963,-1.41236 -2.37824,-2.13995 -3.56213,-3.20648 -7.12114,-6.41578 -10.68001,-9.62523 -1.86973,-1.68516 -3.7405,-3.3694 -5.61231,-5.05266 -2.72131,-2.44757 -5.43877,-4.89857 -8.15555,-7.35024 -0.82652,-0.74186 -1.65305,-1.48372 -2.50461,-2.24806 -4.62045,-4.17693 -9.03271,-8.45373 -13.28196,-12.94206 -2.39768,-2.48125 -4.94737,-4.77643 -7.56282,-7.06941 1.56594,-3.17196 3.30579,-5.32336 6.05674,-7.73746 0.73505,-0.65244 1.47011,-1.30486 2.22744,-1.97705 0.77704,-0.68094 1.55408,-1.36188 2.35468,-2.06345 5.33679,-4.74311 10.53471,-9.48668 15.37929,-14.64884 5.46911,-5.67628 11.57063,-10.76751 17.92139,-15.62216 2.31634,-1.76956 2.31634,-1.76956 3.76475,-3.46104 2.36832,-2.51193 4.28733,-4.43449 7.88432,-5.3038 2.72738,-0.18222 5.37549,-0.17261 8.1088,-0.089 1.51307,0.009 1.51307,0.009 3.05671,0.017 3.27379,0.0264 6.54387,0.0987 9.81666,0.17524 2.25051,0.0347 4.50105,0.0675 6.75163,0.0984 4.48454,0.0664 8.96796,0.15242 13.45179,0.25023 4.73575,0.0956 9.46166,0.11263 14.19803,0.0603 3.68295,-0.038 7.36575,-0.0221 11.04888,-0.0165 1.30331,-0.0296 2.60663,-0.0592 3.94943,-0.0897 3.47676,0.051 6.23115,0.1589 9.51198,1.20208 2.79724,2.85154 4.22632,5.91532 5.78985,9.42237 5.41054,7.13862 12.50343,11.61833 20.84347,15.70394 0.90904,0.45751 1.81809,0.91501 2.7547,1.38636 12.91839,5.34302 31.34537,4.46697 44.72207,0.7075 15.70065,-5.9175 27.39635,-15.00907 34.08775,-29.51033 0.64127,-1.66785 1.24699,-3.34739 1.80932,-5.03836 0.25824,-0.74765 0.51648,-1.4953 0.78254,-2.26561 4.55004,-15.39149 0.76092,-30.25544 -7.78916,-43.81975 -8.97469,-12.40691 -22.52889,-19.21853 -38.15421,-22.75028 -16.43702,-1.2384 -32.50643,0.87816 -45.84838,10.21575 -11.40215,8.91149 -18.87108,18.08923 -22.47187,31.39972 -13.48754,0.9367 -26.61803,1.63824 -40.01713,-0.35788 -18.22544,-2.70835 -40.7978,-5.71702 -57.26991,3.79994 -15.80368,10.46601 -29.17756,24.56807 -41.51629,38.20998 -3.43128,3.78149 -6.93108,7.50471 -10.48888,11.1893 -0.68055,0.7067 -1.36111,1.41339 -2.06229,2.14151 -8.86907,8.92823 -16.25556,13.53144 -29.73222,14.18643 -9.20397,0.12719 -18.29053,-0.74694 -27.34791,-2.16577 -0.29687,-7.85374 -0.52232,-15.70699 -0.65996,-23.5643 -0.0661,-3.65009 -0.15556,-7.297 -0.30096,-10.94528 -1.04417,-26.88395 -1.04417,-26.88395 5.39072,-33.34244 2.5909,-2.07565 5.38828,-3.75982 8.30787,-5.43308 2.14301,-1.99724 2.14301,-1.99724 3.7634,-3.92598 4.74698,-5.0418 10.01061,-9.62718 15.23569,-14.2593 3.59638,-3.20747 7.05924,-6.4502 10.34822,-9.91823 5.89323,-6.17917 12.41954,-11.79787 18.84415,-17.51972 5.07866,-4.5498 9.95288,-9.15372 14.60581,-14.05995 4.78178,-4.86723 10.03467,-9.34248 15.1667,-13.90453 10.03603,-8.82408 10.03603,-8.82408 18.3104,-18.96744 2.96773,-3.93526 5.42446,-6.93743 10.25889,-8.99705 7.88286,-1.13993 15.85819,-0.51984 23.79719,-0.1922 13.45538,0.5321 23.91373,-3.32608 34.10132,-11.32403 11.62901,-9.84821 18.94505,-21.64637 19.93428,-36.08637 0.41142,-14.64068 -2.70126,-27.55299 -13.28952,-38.97768 -12.32496,-11.70287 -26.75099,-18.01993 -44.7854,-18.70161 -16.97604,0.51678 -31.81344,7.35552 -43.39222,18.46442 -11.57666,12.67814 -15.03432,27.43894 -13.75938,43.52427 1.02833,7.47807 3.82477,15.04262 8.44448,21.30768 -0.32241,3.83536 -2.33347,5.56071 -5.35561,8.11371 -3.13185,2.66365 -6.01996,5.41404 -8.82048,8.35908 -5.26177,5.49036 -10.99351,10.52273 -16.72272,15.60989 -4.69553,4.1992 -9.14771,8.49331 -13.45462,13.01913 -3.81545,3.90212 -7.98067,7.4907 -12.09762,11.12978 -3.48811,3.11138 -6.83251,6.27066 -10.03272,9.62685 -4.39457,4.60167 -9.08408,8.89929 -13.85041,13.18477 -0.83741,0.76115 -1.67482,1.5223 -2.53759,2.30651 -0.7956,0.71797 -1.59121,1.43593 -2.41093,2.17566 -0.71855,0.64846 -1.43709,1.29692 -2.17742,1.96504 -1.70359,1.40476 -1.70359,1.40476 -2.86156,1.40476 -0.0792,-33.12069 -0.14071,-66.24134 -0.1774,-99.36208 -0.004,-3.90909 -0.009,-7.81817 -0.0134,-11.72725 -9e-4,-0.77824 -0.002,-1.55648 -0.003,-2.3583 -0.0151,-12.6056 -0.0425,-25.21118 -0.0744,-37.81677 -0.0324,-12.93187 -0.0518,-25.86372 -0.0588,-38.79562 -0.004,-7.98144 -0.0199,-15.962747 -0.048,-23.944153 -0.0205,-6.117338 -0.0227,-12.234609 -0.0181,-18.351966 -9.6e-4,-2.511594 -0.007,-5.02319 -0.0212,-7.534751 -0.0172,-3.423022 -0.0132,-6.845496 -0.003,-10.26853 -0.0106,-0.999066 -0.0202,-1.998133 -0.0306,-3.027473 0.0385,-5.107751 0.20962,-8.60714 3.92233,-12.733298 5.87023,-4.694881 10.8236,-4.796649 18.28496,-4.759238 1.12328,-0.01082 2.24655,-0.02164 3.40387,-0.0328 3.70798,-0.03083 7.41523,-0.03237 11.12335,-0.03366 2.59382,-0.0157 5.18762,-0.03323 7.78142,-0.05246 6.83468,-0.04577 13.66919,-0.06666 20.50403,-0.08243 6.89629,-0.02033 13.79238,-0.06445 20.68854,-0.106393 23.83073,-0.137346 23.83073,-0.137346 33.83173,-0.138371 5.00993,-0.0017 10.00969,-0.03098 15.0171,-0.181255 z"
         fill="#0096d1"
         id="path3"
         style="fill:#0096d1;fill-opacity:1;stroke-width:1.10105" />
      <path
         d="m 654.21073,662.5283 c 6.523,3.24056 11.76332,8.11817 14.18514,14.68989 1.15949,7.84494 0.65197,14.92203 -4.63188,21.36711 -4.38153,4.2262 -8.90936,7.19026 -15.25265,7.87496 -13.74197,0.2353 -13.74197,0.2353 -19.92975,-4.06476 -6.03377,-5.39202 -8.97712,-10.65022 -9.18234,-18.43331 0.0942,-7.99604 2.15094,-12.66805 8.25054,-18.2956 9.46726,-5.99433 15.95841,-6.39896 26.56094,-3.13829 z"
         fill="#0295d1"
         id="path5"
         style="fill:#0096d1;fill-opacity:1;stroke-width:1.11226" />
      <path
         d="m 781.22558,336.87539 c 5.94387,3.21829 9.22545,8.94355 12.23107,14.48958 0.80573,7.92128 0.69636,14.84788 -4.63188,21.36711 -4.51872,4.46598 -9.47464,7.16649 -16.09851,7.79983 -8.70195,0.031 -13.90252,-0.60744 -20.59468,-6.06376 -5.93117,-6.21165 -7.67865,-11.4448 -7.56299,-19.56843 0.61976,-6.03449 3.8554,-11.01608 8.3591,-15.28667 7.99275,-5.80522 18.89925,-6.35625 28.29789,-2.73766 z"
         fill="#0194d0"
         id="path6"
         style="fill:#0096d1;fill-opacity:1;stroke-width:1.11226" />
      <path
         d="m 791.50257,531.44189 c 5.27903,4.18276 7.66744,9.2246 8.9019,15.43691 0.11275,7.16628 -1.225,12.35689 -5.78986,18.16205 -5.36334,4.94827 -10.15007,7.35261 -17.81736,7.54943 -7.20201,-0.3358 -12.70154,-1.96538 -18.07972,-6.48108 -5.98847,-6.75282 -9.03348,-12.52281 -8.10578,-21.36712 2.61912,-7.4379 6.40405,-11.85391 13.56996,-15.96273 9.12013,-3.90459 19.22739,-2.59154 27.32086,2.66254 z"
         fill="#0295d0"
         id="path7"
         style="fill:#0096d1;fill-opacity:1;stroke-width:1.11226" />
      <path
         d="m 653.84886,162.93372 c 6.1907,3.36048 9.95785,7.99739 12.23107,14.28927 1.01129,7.86574 0.63935,14.89772 -4.63188,21.36711 -5.5067,5.58001 -11.53088,7.52883 -19.54076,7.87912 -6.7657,-0.15018 -12.03739,-1.8987 -16.97602,-6.23486 -5.43399,-5.75889 -7.56508,-11.17195 -7.4861,-18.73795 1.54076,-8.34793 6.17436,-14.20135 13.46141,-19.16364 7.49331,-2.17644 15.68197,-2.43686 22.94228,0.60095 z"
         fill="#0295d1"
         id="path8"
         style="fill:#0096d1;fill-opacity:1;stroke-width:1.11226" />
    </g>
  </g>
</svg>
