<!--
  07-conda-environments.svg - Environment management strategy
  Shows: Two-layer strategy - Layer 1 (conda) for OS isolation with base + on-demand
  deep learning envs, Layer 2 (uv/venv) for per-project isolation via copier-data-science.
  Bottom bar: nb_venv_kernels auto-discovers everything as Jupyter kernels.
  Intent: illustrate the complete environment strategy, not just conda.
  Theme: Stellars-Tech derived - accent-1=#0096d1 conda, accent-2=#da8230 project envs.
-->
<svg xmlns="http://www.w3.org/2000/svg" viewBox="0 0 800 380">
  <style>
    .fg-1 { fill: #1a5a6e; }
    .fg-2 { fill: #24697e; }
    .fg-3 { fill: #236a74; }
    .fg-4 { fill: #2b7680; }
    .accent-1 { fill: #005f7a; }
    .accent-2 { fill: #7a4a15; }
    .on-fill { fill: #e0f2f7; }
    @media (prefers-color-scheme: dark) {
      .fg-1 { fill: #b8e4f0; }
      .fg-2 { fill: #8fd4e6; }
      .fg-3 { fill: #5aafc5; }
      .fg-4 { fill: #4099b3; }
      .accent-1 { fill: #5cc8e0; }
      .accent-2 { fill: #d4a04a; }
      .on-fill { fill: #e0f2f7; }
    }
  </style>

  <!-- === GRID ===
    viewBox: 800x380
    Layer 1 label: y=10
    Conda row: y=30, 4 cards w=188 gap=10
    Layer 2 label: y=176
    Project row: y=196, 3 cards w=252 gap=10
    Kernel bar: y=316, h=36
    Footer: y=370
  === -->

  <!-- === LAYOUT TOPOLOGY ===
    v-stack: layer1-label, conda-row, layer2-label, project-row, kernel-bar
    h-stack: conda-row > base, tensorflow, pytorch, more
    h-stack: project-row > project-a, project-b, copier
  === -->

  <!-- Layer 1 Label -->
  <text x="16" y="18" font-family="Segoe UI, Arial, sans-serif" font-size="9" font-weight="600" letter-spacing="1" fill="#0096d1">LAYER 1: CONDA - OS ISOLATION</text>
  <text x="460" y="18" font-family="Segoe UI, Arial, sans-serif" font-size="8" class="fg-4">Separates data science runtime from the operating system</text>

  <!-- Conda Base -->
  <g id="conda-base">
    <path d="M16,30 H204 V162 Q204,165 201,165 H19 Q16,165 16,162 Z" fill="#0096d1" fill-opacity="0.06"/>
    <path d="M16,30 H204 V162 Q204,165 201,165 H19 Q16,165 16,162 Z" fill="none" stroke="#0096d1" stroke-width="1.5"/>
    <rect x="16" y="30" width="188" height="5" fill="#0096d1" opacity="0.8"/>
    <rect x="28" y="44" width="68" height="14" rx="3" fill="#1a8a4a" fill-opacity="0.15" stroke="#1a8a4a" stroke-width="0.8"/>
    <text x="62" y="54" font-family="Segoe UI, Arial, sans-serif" font-size="7" font-weight="600" text-anchor="middle" fill="#1a8a4a">ALWAYS ACTIVE</text>
    <!-- Icon: box (Lucide, ISC license) -->
    <g transform="translate(168, 66) scale(0.583)" fill="none" stroke="#0096d1" stroke-width="2" stroke-linecap="round" stroke-linejoin="round" opacity="0.5">
      <path d="M21 8a2 2 0 0 0-1-1.73l-7-4a2 2 0 0 0-2 0l-7 4A2 2 0 0 0 3 8v8a2 2 0 0 0 1 1.73l7 4a2 2 0 0 0 2 0l7-4A2 2 0 0 0 21 16Z"/><path d="m3.3 7 8.7 5 8.7-5"/><path d="M12 22V12"/>
    </g>
    <text x="28" y="74" font-family="Segoe UI, Arial, sans-serif" font-size="12" font-weight="700" class="fg-1">Base Environment</text>
    <text x="28" y="90" font-family="Segoe UI, Arial, sans-serif" font-size="8" class="fg-3">Python 3.12 via Miniforge</text>
    <text x="28" y="104" font-family="Segoe UI, Arial, sans-serif" font-size="8" class="fg-3">NumPy, Pandas, Polars</text>
    <text x="28" y="118" font-family="Segoe UI, Arial, sans-serif" font-size="8" class="fg-3">SciPy, Scikit-learn</text>
    <text x="28" y="132" font-family="Segoe UI, Arial, sans-serif" font-size="8" class="fg-3">Matplotlib, MLflow</text>
    <text x="28" y="146" font-family="Segoe UI, Arial, sans-serif" font-size="8" class="fg-4">uv pre-installed</text>
    <text x="28" y="158" font-family="Segoe UI, Arial, sans-serif" font-size="7" class="fg-4">43 packages</text>
  </g>

  <!-- TensorFlow -->
  <g id="conda-tf">
    <path d="M214,30 H402 V162 Q402,165 399,165 H217 Q214,165 214,162 Z" fill="#da8230" fill-opacity="0.04"/>
    <path d="M214,30 H402 V162 Q402,165 399,165 H217 Q214,165 214,162 Z" fill="none" stroke="#da8230" stroke-width="1"/>
    <rect x="214" y="30" width="188" height="5" fill="#da8230" opacity="0.6"/>
    <rect x="226" y="44" width="60" height="14" rx="3" fill="#da8230" fill-opacity="0.15" stroke="#da8230" stroke-width="0.8"/>
    <text x="256" y="54" font-family="Segoe UI, Arial, sans-serif" font-size="7" font-weight="600" text-anchor="middle" fill="#da8230">ON-DEMAND</text>
    <!-- Icon: box (Lucide, ISC license) -->
    <g transform="translate(366, 66) scale(0.583)" fill="none" stroke="#da8230" stroke-width="2" stroke-linecap="round" stroke-linejoin="round" opacity="0.5">
      <path d="M21 8a2 2 0 0 0-1-1.73l-7-4a2 2 0 0 0-2 0l-7 4A2 2 0 0 0 3 8v8a2 2 0 0 0 1 1.73l7 4a2 2 0 0 0 2 0l7-4A2 2 0 0 0 21 16Z"/><path d="m3.3 7 8.7 5 8.7-5"/><path d="M12 22V12"/>
    </g>
    <text x="226" y="74" font-family="Segoe UI, Arial, sans-serif" font-size="12" font-weight="700" class="fg-1">TensorFlow</text>
    <text x="226" y="90" font-family="Segoe UI, Arial, sans-serif" font-size="8" class="fg-3">TF 2.18+ with CUDA</text>
    <text x="226" y="104" font-family="Segoe UI, Arial, sans-serif" font-size="8" class="fg-3">Keras 3</text>
    <text x="226" y="118" font-family="Segoe UI, Arial, sans-serif" font-size="8" class="fg-3">Deep learning</text>
    <text x="226" y="158" font-family="Segoe UI, Arial, sans-serif" font-size="7" class="fg-4">Install via lab-utils</text>
  </g>

  <!-- PyTorch -->
  <g id="conda-torch">
    <path d="M412,30 H600 V162 Q600,165 597,165 H415 Q412,165 412,162 Z" fill="#da8230" fill-opacity="0.04"/>
    <path d="M412,30 H600 V162 Q600,165 597,165 H415 Q412,165 412,162 Z" fill="none" stroke="#da8230" stroke-width="1"/>
    <rect x="412" y="30" width="188" height="5" fill="#da8230" opacity="0.6"/>
    <rect x="424" y="44" width="60" height="14" rx="3" fill="#da8230" fill-opacity="0.15" stroke="#da8230" stroke-width="0.8"/>
    <text x="454" y="54" font-family="Segoe UI, Arial, sans-serif" font-size="7" font-weight="600" text-anchor="middle" fill="#da8230">ON-DEMAND</text>
    <!-- Icon: box (Lucide, ISC license) -->
    <g transform="translate(564, 66) scale(0.583)" fill="none" stroke="#da8230" stroke-width="2" stroke-linecap="round" stroke-linejoin="round" opacity="0.5">
      <path d="M21 8a2 2 0 0 0-1-1.73l-7-4a2 2 0 0 0-2 0l-7 4A2 2 0 0 0 3 8v8a2 2 0 0 0 1 1.73l7 4a2 2 0 0 0 2 0l7-4A2 2 0 0 0 21 16Z"/><path d="m3.3 7 8.7 5 8.7-5"/><path d="M12 22V12"/>
    </g>
    <text x="424" y="74" font-family="Segoe UI, Arial, sans-serif" font-size="12" font-weight="700" class="fg-1">PyTorch</text>
    <text x="424" y="90" font-family="Segoe UI, Arial, sans-serif" font-size="8" class="fg-3">PyTorch 2.4+ with CUDA</text>
    <text x="424" y="104" font-family="Segoe UI, Arial, sans-serif" font-size="8" class="fg-3">YOLO, Ultralytics</text>
    <text x="424" y="118" font-family="Segoe UI, Arial, sans-serif" font-size="8" class="fg-3">Computer vision</text>
    <text x="424" y="158" font-family="Segoe UI, Arial, sans-serif" font-size="7" class="fg-4">Install via lab-utils</text>
  </g>

  <!-- R + Rust -->
  <g id="conda-more">
    <path d="M610,30 H784 V162 Q784,165 781,165 H613 Q610,165 610,162 Z" fill="#da8230" fill-opacity="0.04"/>
    <path d="M610,30 H784 V162 Q784,165 781,165 H613 Q610,165 610,162 Z" fill="none" stroke="#da8230" stroke-width="1"/>
    <rect x="610" y="30" width="174" height="5" fill="#da8230" opacity="0.6"/>
    <rect x="622" y="44" width="60" height="14" rx="3" fill="#da8230" fill-opacity="0.15" stroke="#da8230" stroke-width="0.8"/>
    <text x="652" y="54" font-family="Segoe UI, Arial, sans-serif" font-size="7" font-weight="600" text-anchor="middle" fill="#da8230">ON-DEMAND</text>
    <!-- Icon: box (Lucide, ISC license) -->
    <g transform="translate(748, 66) scale(0.583)" fill="none" stroke="#da8230" stroke-width="2" stroke-linecap="round" stroke-linejoin="round" opacity="0.5">
      <path d="M21 8a2 2 0 0 0-1-1.73l-7-4a2 2 0 0 0-2 0l-7 4A2 2 0 0 0 3 8v8a2 2 0 0 0 1 1.73l7 4a2 2 0 0 0 2 0l7-4A2 2 0 0 0 21 16Z"/><path d="m3.3 7 8.7 5 8.7-5"/><path d="M12 22V12"/>
    </g>
    <text x="622" y="74" font-family="Segoe UI, Arial, sans-serif" font-size="12" font-weight="700" class="fg-1">R + Rust</text>
    <text x="622" y="90" font-family="Segoe UI, Arial, sans-serif" font-size="8" class="fg-3">R with IRkernel</text>
    <text x="622" y="104" font-family="Segoe UI, Arial, sans-serif" font-size="8" class="fg-3">Rust with evcxr</text>
    <text x="622" y="118" font-family="Segoe UI, Arial, sans-serif" font-size="8" class="fg-3">Statistical / systems</text>
    <text x="622" y="158" font-family="Segoe UI, Arial, sans-serif" font-size="7" class="fg-4">Install via lab-utils</text>
  </g>

  <!-- Layer 2 Label -->
  <text x="16" y="186" font-family="Segoe UI, Arial, sans-serif" font-size="9" font-weight="600" letter-spacing="1" fill="#da8230">LAYER 2: UV / VENV - PER-PROJECT ISOLATION</text>
  <text x="520" y="186" font-family="Segoe UI, Arial, sans-serif" font-size="8" class="fg-4">Each project gets its own .venv with pinned dependencies</text>

  <!-- Project A -->
  <g id="project-a">
    <path d="M16,196 H262 V302 Q262,305 259,305 H19 Q16,305 16,302 Z" fill="#da8230" fill-opacity="0.04"/>
    <path d="M16,196 H262 V302 Q262,305 259,305 H19 Q16,305 16,302 Z" fill="none" stroke="#da8230" stroke-width="1"/>
    <rect x="16" y="196" width="246" height="5" fill="#da8230" opacity="0.6"/>
    <!-- Icon: folder (Lucide, ISC license) -->
    <g transform="translate(226, 208) scale(0.583)" fill="none" stroke="#da8230" stroke-width="2" stroke-linecap="round" stroke-linejoin="round" opacity="0.5">
      <path d="M20 20a2 2 0 0 0 2-2V8a2 2 0 0 0-2-2h-7.9a2 2 0 0 1-1.69-.9L9.6 3.9A2 2 0 0 0 7.93 3H4a2 2 0 0 0-2 2v13a2 2 0 0 0 2 2Z"/>
    </g>
    <text x="28" y="218" font-family="Segoe UI, Arial, sans-serif" font-size="11" font-weight="700" class="fg-1">project-1/</text>
    <text x="28" y="236" font-family="Segoe UI, Arial, sans-serif" font-size="8" class="fg-3">.venv/ managed by uv</text>
    <text x="28" y="250" font-family="Segoe UI, Arial, sans-serif" font-size="8" class="fg-3">pyproject.toml with pinned deps</text>
    <text x="28" y="264" font-family="Segoe UI, Arial, sans-serif" font-size="8" class="fg-3">uv.lock for reproducibility</text>
    <text x="28" y="282" font-family="Segoe UI, Arial, sans-serif" font-size="7" class="fg-4">Auto-detected as kernel</text>
    <text x="28" y="296" font-family="Segoe UI, Arial, sans-serif" font-size="7" class="fg-4">Persists across image refreshes</text>
  </g>

  <!-- Project B -->
  <g id="project-b">
    <path d="M278,196 H524 V302 Q524,305 521,305 H281 Q278,305 278,302 Z" fill="#da8230" fill-opacity="0.04"/>
    <path d="M278,196 H524 V302 Q524,305 521,305 H281 Q278,305 278,302 Z" fill="none" stroke="#da8230" stroke-width="1"/>
    <rect x="278" y="196" width="246" height="5" fill="#da8230" opacity="0.6"/>
    <!-- Icon: folder (Lucide, ISC license) -->
    <g transform="translate(488, 208) scale(0.583)" fill="none" stroke="#da8230" stroke-width="2" stroke-linecap="round" stroke-linejoin="round" opacity="0.5">
      <path d="M20 20a2 2 0 0 0 2-2V8a2 2 0 0 0-2-2h-7.9a2 2 0 0 1-1.69-.9L9.6 3.9A2 2 0 0 0 7.93 3H4a2 2 0 0 0-2 2v13a2 2 0 0 0 2 2Z"/>
    </g>
    <text x="290" y="218" font-family="Segoe UI, Arial, sans-serif" font-size="11" font-weight="700" class="fg-1">project-2/</text>
    <text x="290" y="236" font-family="Segoe UI, Arial, sans-serif" font-size="8" class="fg-3">.venv/ managed by uv</text>
    <text x="290" y="250" font-family="Segoe UI, Arial, sans-serif" font-size="8" class="fg-3">pyproject.toml with pinned deps</text>
    <text x="290" y="264" font-family="Segoe UI, Arial, sans-serif" font-size="8" class="fg-3">uv.lock for reproducibility</text>
    <text x="290" y="282" font-family="Segoe UI, Arial, sans-serif" font-size="7" class="fg-4">Auto-detected as kernel</text>
    <text x="290" y="296" font-family="Segoe UI, Arial, sans-serif" font-size="7" class="fg-4">Persists across image refreshes</text>
  </g>

  <!-- Copier template -->
  <g id="copier-card">
    <path d="M540,196 H784 V302 Q784,305 781,305 H543 Q540,305 540,302 Z" fill="#0096d1" fill-opacity="0.04"/>
    <path d="M540,196 H784 V302 Q784,305 781,305 H543 Q540,305 540,302 Z" fill="none" stroke="#0096d1" stroke-width="1"/>
    <rect x="540" y="196" width="244" height="5" fill="#0096d1" opacity="0.6"/>
    <!-- Icon: copy (Lucide, ISC license) -->
    <g transform="translate(748, 210) scale(0.583)" fill="none" stroke="#0096d1" stroke-width="2" stroke-linecap="round" stroke-linejoin="round" opacity="0.5">
      <rect width="14" height="14" x="8" y="8" rx="2"/><path d="M4 16c-1.1 0-2-.9-2-2V4c0-1.1.9-2 2-2h10c1.1 0 2 .9 2 2"/>
    </g>
    <text x="552" y="218" font-family="Segoe UI, Arial, sans-serif" font-size="11" font-weight="700" class="fg-1">copier-data-science</text>
    <text x="552" y="236" font-family="Segoe UI, Arial, sans-serif" font-size="8" class="fg-3">Standardized project template</text>
    <text x="552" y="250" font-family="Segoe UI, Arial, sans-serif" font-size="8" class="fg-3">Scaffolds .venv + uv + structure</text>
    <text x="552" y="264" font-family="Segoe UI, Arial, sans-serif" font-size="8" class="fg-3">data/, notebooks/, src/ layout</text>
    <text x="552" y="282" font-family="Segoe UI, Arial, sans-serif" font-size="7" class="fg-4">Accessible via Lab Utilities menu</text>
    <text x="552" y="296" font-family="Segoe UI, Arial, sans-serif" font-size="7" class="fg-4">Consistent across team members</text>
  </g>

  <!-- Kernel Discovery Bar -->
  <g id="kernel-bar">
    <rect x="16" y="316" width="768" height="36" rx="4" fill="#0096d1" fill-opacity="0.04" stroke="#0096d1" stroke-width="1"/>
    <rect x="16" y="316" width="768" height="4" fill="#0096d1" opacity="0.4"/>
    <!-- Icon: search (Lucide, ISC license) -->
    <g transform="translate(26, 326) scale(0.583)" fill="none" stroke="#0096d1" stroke-width="2" stroke-linecap="round" stroke-linejoin="round" opacity="0.5">
      <circle cx="11" cy="11" r="8"/><path d="m21 21-4.3-4.3"/>
    </g>
    <text x="48" y="336" font-family="Segoe UI, Arial, sans-serif" font-size="11" font-weight="600" class="fg-1">nb_venv_kernels</text>
    <text x="48" y="348" font-family="Segoe UI, Arial, sans-serif" font-size="8" class="fg-3">Auto-discovers ALL environments (conda, venv, uv) as Jupyter kernels - zero manual registration</text>
  </g>

  <!-- Footer -->
  <text x="400" y="372" font-family="Segoe UI, Arial, sans-serif" font-size="8" text-anchor="middle" class="fg-4">All environments persist on user volumes - survive image refreshes via Watchtower</text>

</svg>
