<!-- Abstract decorative divider: scattered dots constellation -->
<svg xmlns="http://www.w3.org/2000/svg" viewBox="0 0 800 50">
  <g fill="#0096d1">
    <circle cx="45" cy="28" r="1.2" opacity="0.15"/>
    <circle cx="92" cy="18" r="2" opacity="0.25"/>
    <circle cx="138" cy="35" r="0.8" opacity="0.2"/>
    <circle cx="195" cy="12" r="1.5" opacity="0.3"/>
    <circle cx="240" cy="30" r="2.5" opacity="0.18"/>
    <circle cx="298" cy="22" r="1" opacity="0.35"/>
    <circle cx="345" cy="38" r="1.8" opacity="0.12"/>
    <circle cx="390" cy="15" r="2.2" opacity="0.28"/>
    <circle cx="442" cy="32" r="1.3" opacity="0.22"/>
    <circle cx="505" cy="20" r="2" opacity="0.2"/>
    <circle cx="558" cy="40" r="1.5" opacity="0.15"/>
    <circle cx="612" cy="14" r="1" opacity="0.32"/>
    <circle cx="665" cy="28" r="2.5" opacity="0.18"/>
    <circle cx="718" cy="36" r="0.8" opacity="0.25"/>
    <circle cx="762" cy="22" r="1.8" opacity="0.12"/>
  </g>
  <g fill="#da8230">
    <circle cx="72" cy="38" r="1" opacity="0.2"/>
    <circle cx="168" cy="24" r="1.5" opacity="0.15"/>
    <circle cx="270" cy="42" r="1.2" opacity="0.18"/>
    <circle cx="418" cy="10" r="1.8" opacity="0.12"/>
    <circle cx="530" cy="30" r="1" opacity="0.25"/>
    <circle cx="640" cy="42" r="1.5" opacity="0.1"/>
    <circle cx="740" cy="12" r="1.2" opacity="0.2"/>
  </g>
  <!-- Faint connecting threads -->
  <g stroke="#0096d1" stroke-width="0.3" opacity="0.08" fill="none">
    <path d="M92,18 Q165,8 195,12"/>
    <path d="M390,15 Q416,10 442,32"/>
    <path d="M612,14 Q638,20 665,28"/>
  </g>
</svg>
