<?xml version="1.0" encoding="UTF-8" standalone="no"?>
<svg
   viewBox="3 3 463.29855 87.397804"
   version="1.1"
   id="svg417"
   sodipodi:docname="jh_st_logo.svg"
   inkscape:version="1.4.3 (0d15f75, 2025-12-25)"
   width="463.29855"
   height="87.397804"
   xmlns:inkscape="http://www.inkscape.org/namespaces/inkscape"
   xmlns:sodipodi="http://sodipodi.sourceforge.net/DTD/sodipodi-0.dtd"
   xmlns:xlink="http://www.w3.org/1999/xlink"
   xmlns="http://www.w3.org/2000/svg"
   xmlns:svg="http://www.w3.org/2000/svg">
  <sodipodi:namedview
     id="namedview417"
     pagecolor="#ffffff"
     bordercolor="#000000"
     borderopacity="0.25"
     inkscape:showpageshadow="2"
     inkscape:pageopacity="0.0"
     inkscape:pagecheckerboard="0"
     inkscape:deskcolor="#d1d1d1"
     inkscape:zoom="2.0020493"
     inkscape:cx="243.75024"
     inkscape:cy="79.918112"
     inkscape:window-width="2560"
     inkscape:window-height="1494"
     inkscape:window-x="-11"
     inkscape:window-y="-11"
     inkscape:window-maximized="1"
     inkscape:current-layer="g417" />
  <defs
     id="defs1">
    <linearGradient
       id="swatch1"
       inkscape:swatch="solid">
      <stop
         style="stop-color:#68c3e5;stop-opacity:1;"
         offset="0"
         id="stop1" />
    </linearGradient>
    <style
       id="style1">
      @import url('https://fonts.googleapis.com/css2?family=Orbitron:wght@900&amp;display=swap');
      .brand-text { font-family: 'Orbitron', 'Audiowide', 'Michroma', monospace; font-weight: 950; }
    </style>
    <linearGradient
       inkscape:collect="always"
       xlink:href="#swatch1"
       id="linearGradient1"
       x1="105.24921"
       y1="51.255035"
       x2="401.67982"
       y2="51.255035"
       gradientUnits="userSpaceOnUse" />
  </defs>
  <!-- Embedded logo (1024x1024 scaled to 90x90) -->
  <!-- Text on right using geometric font -->
  <g
     class="brand-text"
     id="g417"
     transform="matrix(1.1882564,0,0,1.5410344,-11.241804,-32.192661)"
     style="stroke:url(#linearGradient1);fill:#0096d1;fill-opacity:1">
    <!-- Stellars-Tech -->
    <!-- JupyterHub -->
    <path
       d="m 110.56603,46.469822 q -1.74142,0 -2.99752,-1.227555 -1.22756,-1.256104 -1.22756,-2.997519 v -1.912703 h 4.42491 v 0.742243 q 0,0.942077 0,0.942077 0,0 0.94208,0 h 9.76335 q 0.94207,0 0.94207,0 0,0 0,-0.942077 V 39.36142 q 0,-0.942078 0,-0.942078 0,0 -0.94207,0 h -10.90526 q -1.74142,0 -2.99752,-1.227555 -1.22756,-1.256103 -1.22756,-2.997519 V 30.14048 q 0,-1.741416 1.22756,-2.968971 1.2561,-1.256103 2.99752,-1.256103 h 12.10426 q 1.71287,0 2.96897,1.256103 1.25611,1.227555 1.25611,2.968971 v 1.912703 h -4.48201 V 31.31094 q 0,-0.942077 0,-0.942077 0,0 -0.94207,0 h -9.76335 q -0.94208,0 -0.94208,0 0,0 0,0.942077 v 1.712868 q 0,0.942078 0,0.942078 0,0 0.94208,0 h 10.96235 q 1.71287,0 2.96897,1.256103 1.25611,1.227555 1.25611,2.968971 v 4.053788 q 0,1.741415 -1.25611,2.997519 -1.2561,1.227555 -2.96897,1.227555 z m 26.37814,0 V 30.368863 h -8.05048 v -4.453457 h 20.55441 v 4.453457 h -8.05048 v 16.100959 z m 14.5594,0 V 25.915406 h 18.98429 v 4.453457 h -14.50229 v 3.597023 h 11.67605 v 4.453456 h -11.67605 v 3.597023 h 14.50229 v 4.453457 z m 21.98178,0 V 25.886858 h 4.42491 v 16.129507 h 16.1295 v 4.453457 z m 22.23871,0 V 25.886858 h 4.42491 v 16.129507 h 16.12951 v 4.453457 z m 22.21017,0 V 30.14048 q 0,-1.741416 1.22756,-2.968971 1.2561,-1.256103 2.99752,-1.256103 h 12.07572 q 1.74141,0 2.99752,1.256103 1.2561,1.227555 1.2561,2.968971 v 16.329342 h -4.48201 v -6.62309 h -11.6475 v 6.62309 z m 4.42491,-11.076546 h 11.6475 V 31.31094 q 0,-0.942077 0,-0.942077 0,0 -0.94207,0 h -9.76335 q -0.94208,0 -0.94208,0 0,0 0,0.942077 z m 19.32689,11.076546 V 25.943954 h 16.30079 q 1.74142,0 2.99752,1.256103 1.2561,1.256103 1.2561,2.968971 v 5.309891 q 0,1.712868 -1.2561,2.968971 -1.2561,1.256103 -2.99752,1.256103 h -0.19984 l 4.45346,5.252796 v 1.513033 h -4.56765 l -5.68101,-6.765829 -5.88085,0.02855 v 6.737281 z m 5.36698,-11.219285 h 9.76335 q 0.94208,0 0.94208,0 0,0 0,-0.942078 V 31.31094 q 0,-0.942077 0,-0.942077 0,0 -0.94208,0 h -9.76335 q -0.94208,0 -0.94208,0 0,0 0,0.942077 v 2.997519 q 0,0.942078 0,0.942078 z m 22.49567,11.219285 q -1.74142,0 -2.99752,-1.227555 -1.22756,-1.256104 -1.22756,-2.997519 v -1.912703 h 4.42491 v 0.742243 q 0,0.942077 0,0.942077 0,0 0.94208,0 h 9.76335 q 0.94207,0 0.94207,0 0,0 0,-0.942077 V 39.36142 q 0,-0.942078 0,-0.942078 0,0 -0.94207,0 h -10.90526 q -1.74142,0 -2.99752,-1.227555 -1.22756,-1.256103 -1.22756,-2.997519 V 30.14048 q 0,-1.741416 1.22756,-2.968971 1.2561,-1.256103 2.99752,-1.256103 h 12.10426 q 1.71287,0 2.96897,1.256103 1.25611,1.227555 1.25611,2.968971 v 1.912703 h -4.48201 V 31.31094 q 0,-0.942077 0,-0.942077 0,0 -0.94207,0 h -9.76335 q -0.94208,0 -0.94208,0 0,0 0,0.942077 v 1.712868 q 0,0.942078 0,0.942078 0,0 0.94208,0 h 10.96235 q 1.71287,0 2.96897,1.256103 1.25611,1.227555 1.25611,2.968971 v 4.053788 q 0,1.741415 -1.25611,2.997519 -1.2561,1.227555 -2.96897,1.227555 z M 289.1039,40.217854 V 35.85004 h 11.90443 v 4.367814 z m 21.58214,6.251968 V 30.368863 h -8.05048 v -4.453457 h 20.55442 v 4.453457 h -8.05048 v 16.100959 z m 14.55939,0 V 25.915406 h 18.98429 v 4.453457 h -14.50229 v 3.597023 h 11.67605 v 4.453456 h -11.67605 v 3.597023 h 14.50229 v 4.453457 z m 26.17832,0 q -1.74142,0 -2.99752,-1.227555 -1.22755,-1.256104 -1.22755,-2.997519 V 30.14048 q 0,-1.741416 1.22755,-2.968971 1.2561,-1.256103 2.99752,-1.256103 H 367.696 v 4.453457 h -15.13034 q -0.94208,0 -0.94208,0 0,0 0,0.942077 v 9.763348 q 0,0.942077 0,0.942077 0,0 0.94208,0 H 367.696 v 4.453457 z m 19.01285,0 V 25.915406 h 4.42491 v 8.05048 h 12.13282 v -8.05048 h 4.4249 v 20.554416 h -4.4249 v -8.05048 h -12.13282 v 8.05048 z"
       id="text1"
       style="font-weight:normal;font-size:28.5478px;font-family:Orbitron;-inkscape-font-specification:'Orbitron, @wght=900';font-variation-settings:'wght' 900;fill:#0096d1;fill-opacity:1;stroke:url(#linearGradient1);stroke-width:0.396498;stroke-opacity:0.850495"
       transform="scale(1.0262138,0.97445578)"
       aria-label="STELLARS-TECH" />
    <path
       d="m 112.89672,75.786697 q -2.2947,0 -3.94989,-1.617574 -1.61758,-1.655192 -1.61758,-3.94989 v -3.498474 h 5.83079 v 1.956136 q 0,1.241394 0,1.241394 0,0 1.2414,0 h 12.86535 q 1.2414,0 1.2414,0 0,0 0,-1.241394 V 48.701737 h 5.90602 v 21.517496 q 0,2.294698 -1.65519,3.94989 -1.65519,1.617574 -3.91227,1.617574 z m 31.22296,0 q -2.2947,0 -3.94989,-1.617574 -1.61757,-1.655192 -1.61757,-3.94989 V 48.701737 h 5.83079 v 19.975158 q 0,1.241394 0,1.241394 0,0 1.24139,0 h 12.86536 q 1.24139,0 1.24139,0 0,0 0,-1.241394 V 48.701737 h 5.90603 v 21.517496 q 0,2.294698 -1.65519,3.94989 -1.6552,1.617574 -3.91228,1.617574 z m 25.65545,0 V 48.739355 H 191.255 q 2.2947,0 3.94989,1.655192 1.6552,1.655192 1.6552,3.912272 v 6.996948 q 0,2.25708 -1.6552,3.912272 -1.65519,1.655192 -3.94989,1.655192 l -15.64908,0.03762 v 8.877848 z m 7.07218,-14.783874 h 12.86536 q 1.24139,0 1.24139,0 0,0 0,-1.241394 v -3.94989 q 0,-1.241394 0,-1.241394 0,0 -1.24139,0 h -12.86536 q -1.24139,0 -1.24139,0 0,0 0,1.241394 v 3.94989 q 0,1.241394 0,1.241394 z m 34.00667,14.783874 V 65.667455 L 199.79429,50.695491 v -1.993754 h 5.49223 l 8.50166,10.683512 8.46405,-10.683512 h 5.68032 v 1.993754 l -11.21016,15.009582 v 10.081624 z m 29.19155,0 V 54.570145 h -10.60828 v -5.868408 h 27.08496 v 5.868408 h -10.60827 v 21.216552 z m 19.1852,0 v -27.08496 h 25.01597 v 5.868408 h -19.10994 v 4.739868 h 15.38576 v 5.868408 h -15.38576 v 4.739868 h 19.10994 v 5.868408 z m 28.92822,0 V 48.739355 h 21.47988 q 2.2947,0 3.94989,1.655192 1.65519,1.655192 1.65519,3.912272 v 6.996948 q 0,2.25708 -1.65519,3.912272 -1.65519,1.655192 -3.94989,1.655192 h -0.26332 l 5.8684,6.921712 v 1.993754 h -6.01888 l -7.48598,-8.915466 -7.74931,0.03762 v 8.877848 z m 7.07219,-14.783874 h 12.86535 q 1.2414,0 1.2414,0 0,0 0,-1.241394 v -3.94989 q 0,-1.241394 0,-1.241394 0,0 -1.2414,0 h -12.86535 q -1.2414,0 -1.2414,0 0,0 0,1.241394 v 3.94989 q 0,1.241394 0,1.241394 z m 23.8498,14.783874 v -27.08496 h 5.83079 v 10.608276 h 15.98765 V 48.701737 h 5.83079 v 27.08496 h -5.83079 V 65.178421 h -15.98765 v 10.608276 z m 37.0537,0 q -2.2947,0 -3.94989,-1.617574 -1.61757,-1.655192 -1.61757,-3.94989 V 48.701737 h 5.83079 v 19.975158 q 0,1.241394 0,1.241394 0,0 1.24139,0 h 12.86536 q 1.24139,0 1.24139,0 0,0 0,-1.241394 V 48.701737 h 5.90603 v 21.517496 q 0,2.294698 -1.6552,3.94989 -1.65519,1.617574 -3.91227,1.617574 z m 25.65545,0 v -27.08496 h 20.46419 q 2.25708,0 3.91227,1.655192 1.65519,1.617574 1.65519,3.912272 v 5.07843 q 0,0.489034 -0.0752,0.94045 -0.0376,0.413798 -0.18809,0.789978 0.56427,0.714742 0.94045,1.655192 0.37618,0.94045 0.37618,1.8809 v 5.605082 q 0,2.294698 -1.65519,3.94989 -1.6552,1.617574 -3.94989,1.617574 z m 7.07218,-5.868408 h 12.86536 q 1.24139,0 1.24139,0 0,0 0,-1.241394 v -2.482788 q 0,-1.241394 0,-1.241394 0,0 -1.24139,0 h -12.86536 q -1.24139,0 -1.24139,0 0,0 0,1.241394 v 2.482788 q 0,1.241394 0,1.241394 z m 0,-10.833984 h 11.81205 q 1.2414,0 1.2414,0 0,0 0,-1.241394 v -2.031372 q 0,-1.241394 0,-1.241394 0,0 -1.2414,0 h -11.81205 q -1.24139,0 -1.24139,0 0,0 0,1.241394 v 2.031372 q 0,1.241394 0,1.241394 z"
       id="text1-4"
       style="font-weight:normal;font-size:37.618px;font-family:Orbitron;-inkscape-font-specification:'Orbitron, @wght=900';font-variation-settings:'wght' 900;fill:#64c6e9;fill-opacity:1;stroke:url(#linearGradient1);stroke-width:0.414905;stroke-opacity:0.850495"
       transform="scale(0.98062003,1.019763)"
       aria-label="JUPYTERHUB" />
  </g>
  <g
     id="g2"
     transform="translate(-0.2608228,-3.8470766)">
    <g
       id="g1">
      <path
         id="path2"
         style="fill:#da8230;fill-opacity:1;stroke-width:0.120445"
         d="m 49.731958,7.022376 c -0.206923,0.00221 -0.206817,0.00231 -0.409634,0.00453 -0.457498,-7.996e-4 -0.914841,-8.458e-4 -1.372329,0.00193 -0.327027,0.00212 -0.654056,0.00337 -0.981083,0.00385 -0.769421,4.566e-4 -1.538833,0.00193 -2.308245,0.00587 -0.887619,0.00462 -1.775278,0.00751 -2.662906,0.00867 -0.769615,9.604e-4 -1.539104,0.0026 -2.308717,0.00472 -0.167083,4.682e-4 -0.329455,0.00106 -0.491626,0.00154 -0.475317,0.00116 -0.950538,0.0025 -1.425855,0.00472 -0.147692,7.773e-4 -0.291146,0.00144 -0.434495,0.00212 -0.208107,4.691e-4 -0.208059,6.175e-4 -0.412033,0.00106 -0.12786,8.456e-4 -0.251857,0.00154 -0.37595,0.00241 -0.508337,0.00231 -0.84254,0.036603 -1.262616,0.319754 l -0.329821,0.2484214 c -0.564503,0.4241888 -1.12183,0.8556616 -1.678002,1.2887439 -0.399953,0.3119287 -0.799984,0.6226313 -1.210524,0.9231573 -0.615939,0.4400634 -1.218721,0.8899844 -1.813037,1.3536034 -0.415596,0.324314 -0.831453,0.647737 -1.254977,0.963585 -0.647544,0.475339 -1.287237,0.956955 -1.918915,1.449377 -0.522343,0.407195 -1.047459,0.809534 -1.582883,1.202698 -0.528352,0.387679 -1.044992,0.785869 -1.559215,1.188646 -0.608069,0.476645 -1.229433,0.93181 -1.868008,1.374573 -0.794263,0.537881 -1.393153,1.054837 -1.754722,1.902094 -0.04758,0.117605 -0.04777,0.117566 -0.0944,0.232843 -0.109317,0.25893 -0.218335,0.517992 -0.325505,0.777657 -0.152567,0.370014 -0.307618,0.739148 -0.462941,1.10822 -0.04016,0.09538 -0.07927,0.187832 -0.118304,0.280407 -0.255064,0.608218 -0.514568,1.214054 -0.791806,1.814316 -0.03525,0.07576 -0.06926,0.149153 -0.103485,0.222682 -0.127946,0.27645 -0.256365,0.552808 -0.385265,0.828896 -0.06242,0.130416 -0.123206,0.256952 -0.183784,0.383532 -0.05587,0.120165 -0.110021,0.23663 -0.164203,0.353263 -0.144658,0.304038 -0.144542,0.304111 -0.229904,0.587622 0.03574,0.331349 0.07234,0.518067 0.320486,0.768577 0.589702,0.420337 1.128467,0.870953 1.66128,1.348846 0.151863,0.137182 0.151796,0.137293 0.300654,0.271758 0.214917,0.193632 0.429786,0.387396 0.644577,0.581135 0.334733,0.302822 0.669572,0.605391 1.005462,0.907159 0.221081,0.19857 0.442018,0.397379 0.662502,0.596484 0.107208,0.09693 0.211189,0.191091 0.315238,0.285164 0.103837,0.09307 0.204668,0.183365 0.305441,0.273703 l 0.282016,0.256193 c 0.313763,0.283199 0.528506,0.529162 0.707677,0.896997 -0.195362,0.179108 -0.391034,0.358016 -0.586985,0.536598 -0.123274,0.112312 -0.123409,0.112379 -0.244256,0.222465 -0.07946,0.07287 -0.156603,0.143517 -0.233738,0.214251 -0.07947,0.07227 -0.156603,0.142377 -0.233738,0.21252 -0.430489,0.393125 -0.894238,0.748255 -1.360857,1.105411 -0.81614,-0.74552 -1.632807,-1.490442 -2.450921,-2.234182 C 18.134498,31.731922 17.717293,31.35306 17.301176,30.973125 16.89366,30.60069 16.485923,30.228318 16.077031,29.857121 15.921507,29.7161 15.765858,29.574982 15.610508,29.43381 c -0.222931,-0.204348 -0.44563,-0.408491 -0.66992,-0.611617 -0.07003,-0.06333 -0.138242,-0.124891 -0.206247,-0.186362 -0.30337,-0.280342 -0.570195,-0.544201 -0.977981,-0.696152 -0.225271,-0.0097 -0.225348,-0.0098 -0.47417,0.159337 -0.08495,0.08368 -0.167314,0.16503 -0.249757,0.246248 -0.09102,0.08748 -0.179354,0.172363 -0.267674,0.257272 -0.284471,0.281055 -0.57818,0.550744 -0.87999,0.816574 -0.512691,0.376821 -0.986872,0.768274 -1.450958,1.193618 -0.5887281,0.543066 -1.1701456,1.083934 -1.818055,1.570014 -0.6004316,0.424451 -0.6003064,0.4245 -0.7915564,1.641577 l -0.043923,0.294674 c -0.051821,0.333886 -0.1034418,0.667826 -0.1541559,1.001853 -0.1143936,0.748323 -0.1144514,0.748382 -0.2303958,1.49651 l -0.061647,0.397799 C 7.178802,38.021406 7.020244,39.02719 6.8568122,40.032388 6.4119042,42.761697 5.9588666,45.490113 5.5855846,48.228377 l -0.040648,0.30008 c -0.1492722,1.083574 -0.4975968,2.331697 -0.1003785,3.383901 0.1108777,0.196845 0.2214666,0.393839 0.330052,0.591728 l 0.1278692,0.233491 c 0.2618166,0.467736 0.5121802,0.939983 0.7609642,1.41349 0.3743607,0.713439 0.7470743,1.427404 1.139303,2.13299 0.1161178,0.207231 0.2321201,0.414429 0.3470242,0.622212 0.1130354,0.205053 0.2260998,0.40992 0.3393761,0.614861 0.075325,0.131492 0.1484825,0.25915 0.2215534,0.386774 0.1027677,0.187281 0.1026522,0.187419 0.2033867,0.370993 0.4140363,1.403784 0.4140941,1.403635 0.2339791,2.884486 -0.023117,0.263896 -0.045658,0.527952 -0.067619,0.791927 -0.03564,0.428902 -0.071761,0.857738 -0.1082675,1.286581 -0.1266459,1.462094 -0.2604775,2.924833 -0.2954045,4.391591 -0.00193,0.112884 -0.00385,0.222513 -0.00578,0.332077 -0.01782,0.5579 -0.054326,0.947529 0.2875059,1.426028 l 0.2664882,0.236734 c 0.5382839,0.614479 1.0758459,1.217534 1.6937789,1.768484 0.378426,0.333972 0.746169,0.673858 1.103924,1.026066 0.06069,0.06011 0.119421,0.11851 0.178295,0.176849 0.233092,0.230753 0.465704,0.461931 0.696677,0.694422 0.643219,0.658756 1.269484,1.279447 2.026221,1.832911 l 0.241395,-0.197389 c 0.111677,-0.09113 0.219983,-0.179411 0.328376,-0.267866 0.23159,-0.189125 0.463778,-0.377747 0.696447,-0.565786 0.62588,-0.485669 1.228065,-0.983704 1.809926,-1.512507 0.14276,-0.130596 0.142798,-0.130559 0.282737,-0.25857 0.416176,-0.378288 0.832081,-0.756765 1.247561,-1.135678 1.208271,-1.101955 2.539267,-2.746822 4.13156,-3.393845 0.182889,0.163233 0.365614,0.326658 0.548022,0.490332 0.07735,0.06946 0.152431,0.136895 0.227525,0.204306 0.07436,0.06626 0.146527,0.130483 0.218683,0.194792 0.07398,0.06657 0.145891,0.13127 0.21772,0.195875 0.21694,0.19424 0.423851,0.393019 0.62379,0.601674 0.06984,0.07395 0.13753,0.145708 0.205293,0.217492 0.121753,0.128858 0.243342,0.257812 0.364951,0.386775 -0.971826,0.874288 -1.943103,1.74893 -2.913619,2.624404 -0.494678,0.446324 -0.989327,0.892739 -1.484651,1.338468 -0.48545,0.436594 -0.970737,0.873371 -1.455263,1.310798 -0.184131,0.166337 -0.36831,0.332524 -0.552558,0.498764 -0.26617,0.238978 -0.532273,0.477971 -0.797538,0.717769 -0.122919,0.111244 -0.122813,0.111264 -0.243303,0.220305 -0.354268,0.316639 -0.698586,0.613932 -0.967463,0.994716 -0.07032,0.199147 -0.07032,0.199022 0.04614,0.455095 0.06906,0.09368 0.136115,0.184722 0.203155,0.275649 l 0.217961,0.305917 c 0.139014,0.192724 0.274339,0.387637 0.403903,0.585674 0.08659,0.137282 0.08669,0.137195 0.1716,0.27176 0.06001,0.09461 0.118353,0.186627 0.176619,0.27846 0.06203,0.09831 0.122349,0.193641 0.1826,0.289054 0.465752,0.737198 0.924155,1.477403 1.37256,2.22336 0.535191,0.892284 1.071019,1.784469 1.615863,2.671966 0.07388,0.119948 0.145361,0.236412 0.217016,0.352832 0.575513,0.949705 1.092567,1.626295 2.131617,2.19093 0.195411,0.103956 0.390158,0.208688 0.584586,0.314133 0.107141,0.05823 0.211247,0.114715 0.315238,0.171227 0.533708,0.288656 1.06365,0.582406 1.591965,0.879053 1.118978,0.629154 2.240366,1.25451 3.362696,1.878744 0.676161,0.375965 1.352573,0.751802 2.027183,1.130057 l 0.366144,0.205818 c 0.231206,0.129881 0.46242,0.25984 0.693567,0.3898 0.201393,0.113676 0.402805,0.227167 0.604429,0.340511 0.206537,0.110598 0.411204,0.224177 0.614457,0.339644 1.278422,0.926992 1.278403,0.926849 4.17816,0.893537 0.295983,-0.0036 0.591868,-0.0058 0.88788,-0.0067 0.619629,-6.86e-4 1.239316,-0.0022 1.858926,-0.0073 0.8035,-0.0078 1.606981,-0.01433 2.41053,-0.01622 0.780171,-0.0015 1.560101,-0.0044 2.340263,-0.0085 0.151709,-8e-4 0.298958,-0.0015 0.446208,-0.0025 0.430565,-0.0017 0.861226,-0.0039 1.291783,-0.0078 0.198599,-0.002 0.198484,-0.0021 0.393153,-0.0042 0.126675,-5.71e-4 0.249642,-8e-4 0.372598,-0.0013 0.171908,-0.0022 0.172053,-0.0024 0.340571,-0.0045 0.295751,-0.0025 0.295809,-0.0024 0.549929,-0.03287 0.334762,-0.201878 0.475076,-0.313901 0.704326,-0.594323 0.141808,-0.185863 0.287544,-0.369214 0.435217,-0.551299 1.412419,-1.402875 1.448704,-2.727743 1.425384,-4.576868 -0.0058,-0.418256 -0.0058,-0.836309 -0.0039,-1.254586 0.0039,-0.734706 0.0039,-1.469416 -6.83e-4,-2.204118 -0.0077,-1.098936 -0.0096,-2.19782 -0.0087,-3.296774 0.0019,-1.850207 -1.06e-4,-3.70042 -0.0067,-5.550617 -0.0067,-1.840271 -0.01261,-3.680496 -0.01387,-5.520781 -1.06e-4,-0.117841 -1.06e-4,-0.232186 -2.22e-4,-0.346561 -3.47e-4,-0.58115 -4.63e-4,-1.162254 -6.94e-4,-1.743405 -0.0019,-4.114024 -0.0096,-8.227971 -0.02081,-12.34198 -0.01107,-4.002047 -0.01964,-8.004171 -0.02389,-12.006229 -1.06e-4,-0.127196 -3.46e-4,-0.250565 -4.62e-4,-0.37402 -9.64e-4,-1.117259 -0.0019,-2.234644 -0.0029,-3.351902 -0.0077,-7.406253 -0.01675,-14.812443 -0.03583,-22.21868 -5.78e-4,-0.205742 -6.93e-4,-0.411496 -9.63e-4,-0.617238 -2.22e-4,-0.103945 -6.85e-4,-0.20482 -8e-4,-0.305703 -0.0019,-0.69967 -0.0039,-1.399377 -0.0048,-2.099046 -0.0019,-0.841239 -0.0039,-1.682417 -0.0058,-2.523656 -9.63e-4,-0.423699 -0.0029,-0.847315 -0.0029,-1.271016 -5.69e-4,-0.390104 -9.64e-4,-0.780381 -0.0029,-1.170485 -6.84e-4,-0.214016 -6.84e-4,-0.213966 -0.0019,-0.4237436 -2.9e-5,-0.135159 2.9e-5,-0.2664006 0,-0.3975843 -5.78e-4,-0.1229269 -9.63e-4,-0.2421686 -0.0019,-0.3614805 C 52.04518,8.4278203 51.989789,8.0043327 51.523463,7.5388819 50.939756,7.0783187 50.498297,7.0270593 49.732892,7.0221949 Z m -15.79679,28.490525 c 0.365074,0.03759 0.365267,0.03758 0.562364,0.157391 0.270929,0.331753 0.339559,0.697971 0.433542,1.093952 0.02206,0.08781 0.04402,0.17545 0.06666,0.265921 0.07224,0.289328 0.142414,0.579175 0.212701,0.868892 0.04999,0.201748 0.100264,0.403436 0.150572,0.605131 0.103335,0.415041 0.206027,0.830203 0.308071,1.245505 0.204649,0.831974 0.414788,1.662813 0.625217,2.493604 0.06348,0.25062 0.126799,0.501262 0.189998,0.751931 0.357224,1.415917 0.71784,2.831356 1.10871,4.240035 0.09879,0.01716 0.197453,0.03442 0.299228,0.05211 1.354374,0.247818 2.667309,0.593527 3.990543,0.950398 0.230424,0.0617 0.460964,0.123252 0.691418,0.184846 0.342776,0.09164 0.685495,0.183271 1.028175,0.275219 0.654594,0.175625 1.30966,0.34937 1.965748,0.520383 0.142539,0.03718 0.285021,0.07433 0.431875,0.112638 0.256287,0.06669 0.512643,0.133138 0.769095,0.199333 0.110048,0.02876 0.220262,0.0575 0.333635,0.08713 0.09363,0.02425 0.187233,0.04853 0.283691,0.0735 0.210987,0.0648 0.210833,0.06467 0.337469,0.179226 0.0263,0.298064 0.04113,0.58944 0.04758,0.887918 0.0048,0.08211 0.0096,0.164248 0.01435,0.248841 0.0077,0.434059 -0.0238,0.653959 -0.329811,0.994071 -0.406013,0.305597 -0.70136,0.412343 -1.207664,0.542436 -0.08601,0.02267 -0.171918,0.04538 -0.260506,0.06874 -0.196201,0.05145 -0.392653,0.101955 -0.589365,0.15177 -0.36781,0.09326 -0.734879,0.189243 -1.101775,0.285379 -1.015354,0.26543 -2.031518,0.527843 -3.048181,0.789115 -0.437887,0.112638 -0.875638,0.225833 -1.313293,0.339212 -0.199668,0.05103 -0.199725,0.05107 -0.40343,0.103131 -1.202357,0.257004 -1.202309,0.256922 -2.169144,0.883377 -0.18211,0.388425 -0.294345,0.777453 -0.391479,1.188429 -0.02129,0.08633 -0.04276,0.172648 -0.06473,0.261597 -0.07041,0.286382 -0.139177,0.573095 -0.207924,0.859811 -0.04922,0.201628 -0.09854,0.403105 -0.147942,0.604701 -0.280118,1.147891 -0.550932,2.297629 -0.820001,3.447678 -0.02832,0.120884 -0.05663,0.241691 -0.08582,0.366236 -0.138301,0.591209 -0.275948,1.182476 -0.412032,1.774103 -0.05058,0.21817 -0.101152,0.436476 -0.151768,0.654642 -0.02216,0.09732 -0.04411,0.194619 -0.06695,0.294892 -0.503107,2.15919 -0.503281,2.159216 -1.093657,2.666562 -0.470847,0.05663 -0.920927,0.03974 -1.392873,0 -0.231832,-0.475223 -0.360462,-0.956773 -0.478477,-1.462782 l -0.06405,-0.268309 c -0.04604,-0.192701 -0.0918,-0.385539 -0.137425,-0.578324 -0.12443,-0.525638 -0.250692,-1.050827 -0.377135,-1.57607 -0.02668,-0.110997 -0.05347,-0.22204 -0.08101,-0.336401 -0.377404,-1.562412 -0.777831,-3.120109 -1.177062,-4.678049 -0.304776,-1.19228 -0.597223,-2.384549 -0.850833,-3.586692 -0.07908,-0.01089 -0.158221,-0.02186 -0.23972,-0.03308 -1.027232,-0.153959 -2.008804,-0.408209 -3.003478,-0.682532 -0.17475,-0.0477 -0.349355,-0.0953 -0.524124,-0.142905 -0.363708,-0.09923 -0.727367,-0.19894 -1.090785,-0.299 -0.463682,-0.127637 -0.927787,-0.254235 -1.391922,-0.380504 -0.35995,-0.09803 -0.719563,-0.196473 -1.079312,-0.295108 -0.171012,-0.04684 -0.342044,-0.0935 -0.513134,-0.140095 -2.229221,-0.607906 -2.229202,-0.608012 -2.668407,-1.005312 -0.06926,-0.349038 -0.06935,-0.349115 -0.09508,-0.773332 -0.01242,-0.13881 -0.02476,-0.277486 -0.03757,-0.420502 0.181271,-0.560461 0.473343,-0.649179 1.016944,-0.928993 0.66729,-0.293957 1.363977,-0.467918 2.077839,-0.645345 0.159849,-0.04117 0.319524,-0.08233 0.484208,-0.124746 0.421906,-0.108638 0.844506,-0.215281 1.267173,-0.321484 0.425218,-0.107214 0.849889,-0.216221 1.274569,-0.325158 0.627316,-0.160712 1.254881,-0.3204 1.882823,-0.479091 0.14148,-0.03669 0.282998,-0.07332 0.428764,-0.111125 0.30784,-0.07635 0.617818,-0.145994 0.928981,-0.210359 0.907578,-0.168133 0.907376,-0.168113 1.559697,-0.705447 0.06117,-0.215079 0.06146,-0.215065 0.102532,-0.453146 0.06021,-0.19928 0.120944,-0.398301 0.182119,-0.59735 0.06358,-0.231888 0.126318,-0.464132 0.188331,-0.696367 0.034,-0.125071 0.068,-0.250132 0.103003,-0.378992 0.109461,-0.404057 0.217566,-0.808308 0.325756,-1.212643 0.07475,-0.277063 0.149638,-0.554 0.224423,-0.831058 0.411629,-1.531154 0.815186,-3.062864 1.151247,-4.609298 0.544497,-2.457307 0.544411,-2.457275 1.608216,-2.471122 0.203242,-0.0044 0.203252,-0.0045 0.410598,-0.0091 z" />
      <path
         d="m 69.959641,6.8755426 c 0.133707,-0.00318 0.133707,-0.00318 0.27012,-0.00636 0.231985,-0.00578 0.463893,-0.013803 0.695782,-0.022106 0.650404,0.073967 1.091035,0.4455514 1.550671,0.862619 0.07311,0.065577 0.146315,0.1311491 0.221688,0.1987112 0.07581,0.068659 0.151603,0.1373148 0.229712,0.2080528 0.528816,0.472203 1.058372,0.9321018 1.628665,1.3603545 0.691062,0.5191279 1.330178,1.0845429 1.974946,1.6530119 0.784284,0.691387 1.603188,1.331236 2.446806,1.957747 0.08544,0.0725 0.170792,0.145013 0.258763,0.219715 0,0.0756 0,0.151214 0,0.229113 0.09889,0.03831 0.09889,0.03831 0.199785,0.07741 0.378589,0.199903 0.67434,0.467086 0.987468,0.745957 0.130894,0.114785 0.261855,0.22949 0.392903,0.344116 0.06329,0.05554 0.126588,0.111085 0.191809,0.168311 0.297735,0.259038 0.604371,0.508125 0.910775,0.757983 0.270573,0.222727 0.536676,0.449751 0.802913,0.677045 0.490027,0.416452 0.988789,0.821807 1.491683,1.224321 0.620882,0.497329 1.228191,1.005918 1.826898,1.526706 0.405618,0.352815 0.817256,0.697688 1.234461,1.038278 0.59785,0.49158 1.183978,0.995767 1.773265,1.496391 0.538264,0.456674 1.079101,0.909976 1.625814,1.357669 0.399857,0.330743 0.793829,0.667529 1.18678,1.005499 0.223258,0.18462 0.443049,0.340645 0.686381,0.498947 1.044839,0.982943 1.388636,2.917053 1.841761,4.209941 0.08659,0.245914 0.173275,0.491815 0.259947,0.737707 0.727848,2.067272 1.445197,4.137759 2.15959,6.209172 0.391775,1.135925 0.784717,2.271494 1.178351,3.406852 0.122804,0.354706 0.245154,0.709549 0.367446,1.064414 0.399885,1.157899 0.808866,2.311791 1.236982,3.460739 0.120087,0.325695 0.239951,0.651462 0.359749,0.977248 0.111735,0.300663 0.226835,0.600052 0.342095,0.899532 0.38016,1.014024 0.59932,1.840207 0.41517,2.923223 -0.0475,0.288911 -0.0855,0.578347 -0.12321,0.868544 -0.0847,0.647033 -0.17505,1.29327 -0.26642,1.939495 -0.10975,0.777291 -0.21773,1.554795 -0.324974,2.332395 -0.01165,0.08432 -0.02331,0.16865 -0.03525,0.255529 -0.213876,1.553391 -0.415751,3.10807 -0.614493,4.663227 -0.01483,0.11602 -0.02967,0.232037 -0.04498,0.351574 -0.148608,1.16267 -0.296483,2.325421 -0.443289,3.488294 -0.05558,0.439677 -0.111514,0.879316 -0.167507,1.318951 -0.02582,0.203772 -0.05153,0.407558 -0.07706,0.611366 -0.131049,1.046626 -0.272133,2.091555 -0.437414,3.133932 -0.01348,0.08995 -0.02707,0.179891 -0.04094,0.272564 -0.119075,0.724577 -0.37778,1.249465 -0.866978,1.824296 -0.06993,0.08902 -0.139813,0.178035 -0.211844,0.26975 -0.2122,0.268671 -0.429669,0.532886 -0.64815,0.797055 -0.127744,0.159601 -0.255084,0.319492 -0.38196,0.479705 -0.181204,0.228566 -0.362744,0.456818 -0.546057,0.683897 -0.473536,0.586968 -0.91907,1.188957 -1.359229,1.798332 -0.618723,0.854409 -1.265863,1.689092 -1.911422,2.525634 -0.268626,0.348783 -0.535432,0.698776 -0.801487,1.049297 -0.04845,0.06385 -0.09692,0.127697 -0.146864,0.193479 -0.389513,0.514043 -0.775827,1.030186 -1.16216,1.546342 -0.575446,0.768743 -1.158704,1.531893 -1.74512,2.293251 -0.445148,0.578692 -0.885134,1.160572 -1.321951,1.744856 -0.523046,0.698283 -1.04716,1.39583 -1.575397,2.090651 -0.06473,0.08601 -0.129498,0.172036 -0.196211,0.26066 -0.06194,0.08114 -0.123844,0.162289 -0.187648,0.245894 -0.05385,0.07099 -0.107661,0.141984 -0.163124,0.215128 -0.43201,0.504666 -0.891973,0.876786 -1.481241,1.209664 -0.133784,0.07605 -0.267567,0.1521 -0.405415,0.230456 -0.14516,0.08133 -0.290347,0.162614 -0.435555,0.24388 -0.151161,0.08542 -0.302292,0.170885 -0.453394,0.256408 -1.390264,0.785166 -2.790151,1.555133 -4.19049,2.324239 -0.705704,0.387775 -1.407343,0.78118 -2.107189,1.178228 -0.641052,0.363034 -1.284578,0.722175 -1.928086,1.081345 -0.209455,0.116933 -0.418824,0.234004 -0.628182,0.351083 -0.264167,0.14736 -0.529423,0.293008 -0.795872,0.436697 -0.274145,0.150524 -0.517949,0.304713 -0.774093,0.484122 -1.386421,0.905217 -2.823633,0.800771 -4.458037,0.78094 -0.298863,-5.72e-4 -0.597716,-6.86e-4 -0.896569,-6.86e-4 -0.623134,-6.85e-4 -1.246135,-0.0045 -1.869232,-0.0107 -0.798193,-0.0078 -1.596232,-0.0095 -2.394464,-0.0092 -0.615718,-1.06e-4 -1.231407,-0.0026 -1.847106,-0.006 -0.294402,-0.0015 -0.588805,-0.0025 -0.883207,-0.0027 -0.410627,-9.16e-4 -0.821091,-0.005 -1.231678,-0.01 -0.121079,2.29e-4 -0.242167,4.57e-4 -0.366915,6.86e-4 -0.687595,-0.01197 -1.133042,-0.0663 -1.660355,-0.525418 -0.327576,-0.545022 -0.276766,-1.116867 -0.272826,-1.72456 -2.31e-4,-0.116971 -4.63e-4,-0.233941 -6.84e-4,-0.354456 -4.62e-4,-0.392426 9.15e-4,-0.784825 0.0019,-1.177247 6.7e-5,-0.281112 2.9e-5,-0.562222 -1.06e-4,-0.843332 -5.8e-5,-0.605458 6.84e-4,-1.21091 0.0019,-1.816366 0.0019,-0.875383 0.0029,-1.750765 0.0029,-2.626152 5.77e-4,-1.420288 0.0019,-2.840572 0.0048,-4.260858 0.0019,-1.379597 0.0039,-2.759193 0.0048,-4.138791 5.8e-5,-0.08505 9.6e-5,-0.170103 2.22e-4,-0.257734 3.46e-4,-0.426685 6.83e-4,-0.853369 9.14e-4,-1.280055 0.0029,-3.539246 0.0067,-7.078486 0.01223,-10.617727 0.135498,0.108507 0.270881,0.217139 0.406225,0.325825 0.07542,0.06048 0.150804,0.120962 0.228488,0.183276 0.287189,0.235154 0.55779,0.483047 0.826522,0.736697 0.09546,0.08949 0.190874,0.178978 0.289202,0.271177 0.245942,0.243075 0.479439,0.488526 0.711598,0.742824 0.510572,0.55324 1.062457,1.064151 1.61725,1.577834 0.699172,0.64737 1.372983,1.302097 2.009199,2.004733 0.692507,0.766552 0.692507,0.766552 1.476455,1.446272 0.368571,0.286438 0.656751,0.594785 0.965593,0.93614 0.421241,0.448808 0.878353,0.864579 1.332807,1.283388 -0.153742,0.379233 -0.330862,0.726862 -0.540355,1.081123 -0.773602,1.455558 -0.804492,2.93263 -0.365306,4.482012 0.485682,1.360888 1.409509,2.521673 2.745524,3.229055 1.614331,0.741529 3.327008,1.012267 5.070557,0.479702 1.658583,-0.551702 2.855382,-1.626413 3.652601,-3.091674 0.46712,-1.033587 0.602917,-2.087856 0.517999,-3.201757 -0.0067,-0.100863 -0.01415,-0.201718 -0.02139,-0.305632 -0.187899,-1.441873 -1.098626,-2.808537 -2.292217,-3.703836 -1.269889,-0.900559 -2.804753,-1.282676 -4.383704,-1.145563 -0.100928,0.02629 -0.201856,0.05258 -0.305847,0.07965 -0.353159,0.08454 -0.553811,0.112631 -0.911845,0.0349 -0.697247,-0.45536 -1.237755,-1.110881 -1.786412,-1.712135 -0.51639,-0.562302 -1.059336,-1.089754 -1.623136,-1.609996 -0.482041,-0.444804 -0.955962,-0.889347 -1.396545,-1.371094 -0.461832,-0.504423 -0.960392,-0.969273 -1.465039,-1.435532 -0.590636,-0.54571 -1.159743,-1.097649 -1.69978,-1.688139 -0.233363,-0.251265 -0.481106,-0.48526 -0.735612,-0.717543 -0.326738,-0.303265 -0.639596,-0.608405 -0.936099,-0.937928 -0.483351,-0.531392 -1.015258,-1.01537 -1.543283,-1.506905 -0.45847,-0.428527 -0.899853,-0.863915 -1.315921,-1.329703 -0.15592,-0.182294 -0.15592,-0.182294 -0.3524,-0.318715 -0.251365,-0.290829 -0.219068,-0.501076 -0.216583,-0.872575 2.9e-5,-0.137584 5.8e-5,-0.275167 8.7e-5,-0.416921 0.0019,-0.148574 0.0039,-0.297145 0.0058,-0.450221 6.83e-4,-0.15361 9.62e-4,-0.307223 0.0019,-0.460835 9.63e-4,-0.403982 0.0048,-0.807922 0.0087,-1.211885 0.0039,-0.412346 0.0058,-0.824697 0.0077,-1.237053 0.0039,-0.808848 0.01016,-1.617665 0.01782,-2.426488 0.06781,-0.0028 0.13567,-0.0057 0.205563,-0.0086 0.313773,-0.01332 0.627508,-0.0272 0.941252,-0.04109 0.106662,-0.0044 0.213318,-0.0089 0.323204,-0.01347 0.52006,-0.02339 1.030891,-0.05692 1.54678,-0.123939 1.303409,-0.137318 1.303409,-0.137318 1.830327,0.222803 0.223826,0.206906 0.425344,0.423041 0.626794,0.649373 0.15853,0.168402 0.317463,0.336468 0.476762,0.504233 0.08207,0.08735 0.164097,0.174688 0.248641,0.264677 0.420412,0.436726 0.865705,0.848937 1.311856,1.262227 0.177187,0.165271 0.354374,0.330542 0.531551,0.495813 0.270765,0.251843 0.541722,0.503493 0.81294,0.754907 0.26775,0.248464 0.534768,0.497609 0.801699,0.746854 0.08216,0.07576 0.164338,0.151515 0.248987,0.22957 0.07455,0.06975 0.149118,0.139505 0.225936,0.211369 0.09881,0.09168 0.09881,0.09168 0.199621,0.185214 0.140266,0.158734 0.140266,0.158734 0.140266,0.387847 0.08033,0 0.160735,0 0.243534,0 0.173854,0.166242 0.173854,0.166242 0.37673,0.397367 0.475625,0.526196 0.987151,1.009087 1.510697,1.492812 0.823478,0.76084 1.603109,1.528043 2.290791,2.401652 0.584066,0.693036 1.153877,1.319953 2.098144,1.533588 0.970969,0.102404 1.933345,0.07448 2.908263,0.03166 0.572844,-0.01936 1.135218,0.0081 1.706137,0.04972 0.158067,0.0096 0.316133,0.0192 0.478997,0.02909 0.105635,0.007 0.211275,0.01388 0.32012,0.02102 0.04007,0.16613 0.04007,0.16613 0.08091,0.335615 0.420143,1.657444 1.212643,3.017802 2.750273,3.996042 1.587255,0.874778 3.418227,1.140796 5.223721,0.722242 1.504754,-0.463685 2.767611,-1.436545 3.58269,-2.720263 0.868028,-1.679665 0.986669,-3.308743 0.417629,-5.082985 -0.627864,-1.443863 -1.649489,-2.556666 -3.166004,-3.207573 -0.07802,-0.035 -0.156025,-0.07 -0.236407,-0.106053 -1.256933,-0.538882 -3.101294,-0.591044 -4.406052,-0.166016 -0.201094,0.0842 -0.39924,0.174937 -0.593631,0.272071 -0.105807,0.05258 -0.211594,0.105143 -0.320593,0.159305 -1.112582,0.566152 -1.112582,0.566152 -1.858597,1.474295 -0.159579,0.359997 -0.289038,0.53324 -0.621508,0.77208 -0.82106,0.18456 -1.70607,0.09595 -2.541935,0.06444 -0.237186,-0.0052 -0.474392,-0.0098 -0.711598,-0.01409 -0.579972,-0.01134 -1.159358,-0.02911 -1.739021,-0.05034 -0.08033,-0.151213 -0.160735,-0.302429 -0.243535,-0.458225 -0.08033,0 -0.160735,0 -0.243544,0 -0.146026,-0.140062 -0.146026,-0.140062 -0.32725,-0.350828 -0.524952,-0.583456 -1.101409,-1.114076 -1.681082,-1.648788 -0.427166,-0.396557 -0.832283,-0.799631 -1.213771,-1.235673 -0.252406,-0.271204 -0.523691,-0.52078 -0.796286,-0.774179 -0.148994,-0.139461 -0.297938,-0.278979 -0.446825,-0.418538 -0.08255,-0.07727 -0.16506,-0.154542 -0.250094,-0.234155 -0.374582,-0.350857 -0.748837,-0.702023 -1.123082,-1.053204 -0.196616,-0.184393 -0.393347,-0.368682 -0.590183,-0.552868 -0.286167,-0.267814 -0.57193,-0.536006 -0.857615,-0.804271 -0.08688,-0.08118 -0.173835,-0.162351 -0.263377,-0.245986 -0.485871,-0.45691 -0.949851,-0.924883 -1.396695,-1.416 -0.252136,-0.271502 -0.520252,-0.522641 -0.795285,-0.773543 0.164665,-0.347078 0.347631,-0.582486 0.63691,-0.846642 0.07725,-0.07139 0.154599,-0.142778 0.234239,-0.216331 0.08168,-0.07451 0.163422,-0.149018 0.247608,-0.225784 0.56121,-0.518997 1.107806,-1.038043 1.617251,-1.602891 0.575118,-0.621106 1.216737,-1.178195 1.884576,-1.709394 0.243582,-0.19363 0.243582,-0.19363 0.395889,-0.378711 0.249054,-0.27486 0.450851,-0.485229 0.829103,-0.580347 0.286803,-0.01994 0.565274,-0.01888 0.852703,-0.0097 0.159107,9.14e-4 0.159107,9.14e-4 0.32143,0.0018 0.344271,0.0029 0.688144,0.0108 1.032298,0.01917 0.236657,0.0037 0.473323,0.0074 0.70999,0.01076 0.47158,0.0073 0.943045,0.01667 1.414557,0.02738 0.498001,0.01049 0.994972,0.01232 1.493032,0.0066 0.387297,-0.0042 0.774565,-0.0025 1.161881,-0.0018 0.137048,-0.0033 0.274107,-0.0064 0.415307,-0.0098 0.365614,0.0056 0.655259,0.01739 1.00026,0.131533 0.294153,0.312018 0.444426,0.64726 0.60885,1.031006 0.568954,0.781114 1.314834,1.27129 2.191849,1.718342 0.09556,0.05006 0.191192,0.100125 0.289683,0.151697 1.358466,0.584639 3.296204,0.488781 4.702871,0.07742 1.651041,-0.647501 2.880936,-1.642311 3.584588,-3.229053 0.06743,-0.182498 0.131135,-0.366275 0.190267,-0.551302 0.02717,-0.08181 0.05432,-0.163618 0.08226,-0.247907 0.478468,-1.684153 0.08004,-3.310582 -0.819095,-4.794803 -0.943756,-1.357579 -2.369083,-2.102913 -4.012205,-2.489361 -1.728485,-0.135507 -3.418304,0.09609 -4.821311,1.117819 -1.199024,0.975104 -1.984445,1.979344 -2.363091,3.43579 -1.418324,0.1025 -2.7991,0.179258 -4.208118,-0.03916 -1.916546,-0.29635 -4.290204,-0.625563 -6.022367,0.415794 -1.661887,1.145202 -3.068246,2.688265 -4.365761,4.180977 -0.360827,0.413775 -0.728859,0.821174 -1.102989,1.224345 -0.07157,0.07732 -0.143137,0.154656 -0.216862,0.234327 -0.932651,0.976936 -1.709403,1.480625 -3.126579,1.552295 -0.967867,0.01392 -1.923385,-0.08173 -2.87584,-0.236979 -0.03121,-0.859366 -0.05491,-1.718678 -0.06935,-2.578434 -0.0067,-0.399397 -0.01637,-0.798446 -0.03169,-1.197644 -0.109798,-2.94167 -0.109798,-2.94167 0.566883,-3.648366 0.272451,-0.22712 0.566613,-0.411403 0.873633,-0.594492 0.225359,-0.218542 0.225359,-0.218542 0.395755,-0.429586 0.499176,-0.551678 1.052688,-1.053416 1.602147,-1.560269 0.378184,-0.350965 0.742335,-0.705788 1.088193,-1.085263 0.619725,-0.676131 1.306009,-1.290936 1.981612,-1.917028 0.534056,-0.497842 1.046621,-1.001608 1.535914,-1.538453 0.502838,-0.532578 1.055224,-1.022264 1.594894,-1.521449 1.055367,-0.965541 1.055367,-0.965541 1.925475,-2.075439 0.312087,-0.430601 0.570427,-0.7591 1.078802,-0.984466 0.828949,-0.124732 1.667617,-0.05688 2.502462,-0.02102 1.414942,0.05823 2.514714,-0.363944 3.586022,-1.239086 1.222874,-1.077603 1.992218,-2.368569 2.096237,-3.948611 0.04325,-1.602 -0.284057,-3.014877 -1.397498,-4.26498 -1.296059,-1.280541 -2.813065,-1.971761 -4.709527,-2.046351 -1.785161,0.05656 -3.345426,0.804849 -4.563031,2.020395 -1.217373,1.387257 -1.580974,3.002402 -1.446902,4.762473 0.108142,0.81826 0.402207,1.645981 0.888005,2.33151 -0.03391,0.419669 -0.245383,0.608459 -0.563183,0.887812 -0.32934,0.291458 -0.633047,0.59241 -0.927546,0.91466 -0.55331,0.600759 -1.156053,1.151406 -1.758517,1.708051 -0.493774,0.459481 -0.961954,0.929346 -1.414866,1.424569 -0.401216,0.426973 -0.839227,0.819638 -1.272152,1.217831 -0.366799,0.340452 -0.718495,0.686142 -1.05502,1.05338 -0.462121,0.503519 -0.955259,0.973771 -1.456476,1.442691 -0.08803,0.08329 -0.176119,0.166573 -0.266845,0.252382 -0.0837,0.07857 -0.167334,0.157121 -0.253533,0.238064 -0.07552,0.07095 -0.151122,0.14191 -0.22897,0.215016 -0.179142,0.153711 -0.179142,0.153711 -0.300914,0.153711 -0.0087,-3.624101 -0.01483,-7.248199 -0.01869,-10.872307 -4.52e-4,-0.427736 -9.15e-4,-0.855473 -9.63e-4,-1.283208 -9.6e-5,-0.08516 -2.31e-4,-0.170312 -3.37e-4,-0.258049 -0.0019,-1.379319 -0.0048,-2.758634 -0.0077,-4.13795 -0.0039,-1.415021 -0.0058,-2.830039 -0.0058,-4.24506 -4.62e-4,-0.873339 -0.0019,-1.746663 -0.0048,-2.619998 -0.0019,-0.669365 -0.0019,-1.338724 -0.0019,-2.008091 -9.6e-5,-0.274821 -6.83e-4,-0.549643 -0.0019,-0.824461 -0.0019,-0.3745515 -9.63e-4,-0.7490422 -3.46e-4,-1.1235927 -9.64e-4,-0.1093193 -0.0019,-0.2186386 -0.0029,-0.3312695 0.0039,-0.5588961 0.02206,-0.9418026 0.412466,-1.3932913 0.617298,-0.5137195 1.138185,-0.5248545 1.922807,-0.5207617 0.118111,-0.00116 0.236233,-0.00241 0.357937,-0.00356 0.389927,-0.00337 0.779767,-0.00356 1.169703,-0.00366 0.272769,-0.00173 0.545528,-0.00366 0.818277,-0.00578 0.718726,-0.00501 1.437424,-0.00732 2.156159,-0.00905 0.725199,-0.00221 1.45038,-0.00703 2.17556,-0.011645 2.505987,-0.015026 2.505987,-0.015026 3.557674,-0.015142 0.526831,-1.831e-4 1.052593,-0.00337 1.579164,-0.019833 z"
         fill="#0096d1"
         id="path3"
         style="stroke-width:0.118107" />
    </g>
    <path
       d="m 71.77841,75.425424 c 0.685947,0.347476 1.237013,0.870485 1.491682,1.575148 0.121927,0.841186 0.06858,1.600039 -0.487078,2.291125 -0.460754,0.45316 -0.936889,0.770986 -1.603939,0.844405 -1.445072,0.02523 -1.445072,0.02523 -2.095764,-0.43585 -0.634501,-0.578169 -0.944017,-1.141988 -0.965593,-1.976543 0.01,-0.857389 0.226186,-1.358352 0.867603,-1.961776 0.995559,-0.642752 1.678155,-0.686139 2.793089,-0.336509 z"
       fill="#0295d1"
       id="path5"
       style="stroke-width:0.118107" />
    <path
       d="m 85.13501,40.278146 c 0.625043,0.345087 0.970122,0.958987 1.286187,1.553669 0.08476,0.849373 0.07321,1.592089 -0.487078,2.291125 -0.475172,0.478871 -0.996331,0.768438 -1.692883,0.83635 -0.915072,0.0034 -1.461958,-0.06514 -2.165686,-0.650198 -0.623713,-0.666053 -0.807469,-1.227187 -0.795313,-2.098256 0.06521,-0.647059 0.405425,-1.181219 0.879027,-1.63914 0.840499,-0.622473 1.987402,-0.681559 2.975746,-0.29355 z"
       fill="#0194d0"
       id="path6"
       style="stroke-width:0.118107" />
    <path
       d="m 86.215711,61.369466 c 0.555131,0.448503 0.806294,0.989122 0.936109,1.655248 0.01184,0.768418 -0.128823,1.324988 -0.608851,1.947456 -0.564002,0.530587 -1.067359,0.788396 -1.873634,0.809499 -0.757352,-0.036 -1.335667,-0.210738 -1.90122,-0.694944 -0.629734,-0.724082 -0.949941,-1.342778 -0.852385,-2.291124 0.275417,-0.797541 0.673435,-1.271055 1.426982,-1.71163 0.959054,-0.418675 2.021904,-0.277882 2.872999,0.285495 z"
       fill="#0295d0"
       id="path7"
       style="stroke-width:0.118107" />
    <path
       d="m 71.740362,21.626962 c 0.651001,0.360332 1.04714,0.857534 1.286186,1.53219 0.106352,0.843417 0.06723,1.597434 -0.487078,2.291123 -0.579068,0.598328 -1.212557,0.807294 -2.054856,0.844853 -0.711465,-0.0161 -1.265824,-0.20359 -1.785161,-0.668544 -0.57143,-0.617506 -0.795525,-1.19793 -0.787223,-2.009207 0.162026,-0.89512 0.649277,-1.522763 1.415569,-2.054852 0.787983,-0.233372 1.649084,-0.261298 2.412563,0.06444 z"
       fill="#0295d1"
       id="path8"
       style="stroke-width:0.118107" />
    <path
       d="m 86.299425,65.430395 c -0.330215,0.298229 -0.473843,0.343046 -0.943708,0.365148 -0.130596,-0.0072 -0.261201,-0.01418 -0.395754,-0.02148 0.162362,-0.07637 0.324725,-0.152743 0.487077,-0.229113 0.08284,-0.04489 0.165764,-0.08978 0.251154,-0.136035 0.235925,-0.09307 0.235925,-0.09307 0.601231,0.02148 z"
       fill="#e2f3f7"
       id="path18"
       style="stroke-width:0.118107" />
  </g>
</svg>
